<svg width="313" height="28" viewBox="0 0 313 28" fill="none" xmlns="http://www.w3.org/2000/svg">
<mask id="mask0_1446_809" style="mask-type:luminance" maskUnits="userSpaceOnUse" x="0" y="0" width="313" height="28">
<path d="M0 0H313V27.9531H0V0Z" fill="white"/>
</mask>
<g mask="url(#mask0_1446_809)">
<path d="M107.786 1.65112C107.542 1.65112 107.303 1.65112 107.058 1.65112C107.044 0.979247 107.349 0.682373 107.561 0.41154C107.8 0.109457 108.127 0.114666 108.149 0.963623C107.899 0.947999 107.778 1.17716 107.786 1.65112ZM107.786 1.65112C107.775 2.12508 107.899 2.35425 108.149 2.33862C108.149 2.10425 108.149 1.87508 108.149 1.65112C108.031 1.65112 107.907 1.65112 107.786 1.65112ZM170.052 8.18237C170.01 8.10425 169.961 7.95321 169.931 7.96362C169.845 8.00008 169.768 8.10425 169.689 8.18237C169.73 8.2605 169.768 8.33341 169.818 8.42717C169.892 8.34383 169.972 8.26571 170.052 8.18237ZM108.515 2.33862C109.06 2.27612 108.826 1.48967 108.878 0.963623C108.908 1.01571 108.963 1.02091 109.038 0.947998C109.109 0.880289 109.159 0.697998 109.203 0.552165C109.211 0.520914 109.131 0.41154 109.09 0.333415C109.021 0.437581 108.919 0.520915 108.886 0.666748C108.851 0.807373 108.851 0.91154 108.878 0.963623C108.636 0.963623 108.394 0.963623 108.152 0.963623C108.152 1.19279 108.152 1.42716 108.152 1.65112C108.402 1.63029 108.526 1.86467 108.515 2.33862ZM108.152 3.02612C108.402 3.04696 108.526 2.81779 108.515 2.33862C108.394 2.33862 108.27 2.33862 108.152 2.33862C108.152 2.56779 108.152 2.79696 108.152 3.02612ZM107.3 4.29175C107.377 3.37508 108.177 4.19279 108.152 3.02612C107.789 3.02612 107.424 3.02612 107.061 3.02612C107.146 3.44279 106.849 4.11987 107.3 4.29175ZM103.417 3.36987C103.511 3.48446 103.607 3.70321 103.692 3.69279C103.849 3.65633 103.995 3.48446 104.146 3.36987C104.052 3.25529 103.964 3.1355 103.827 2.96883C103.706 3.08862 103.56 3.22925 103.417 3.36987ZM171.591 8.98967C171.756 9.40112 172.001 9.32821 172.196 8.94279C171.512 8.23446 172.647 7.29175 171.869 6.24487C171.712 6.71362 171.558 7.30737 171.333 7.78654C170.981 8.56258 171.465 8.66675 171.591 8.98967ZM105.966 3.71362C105.939 3.77092 105.936 3.87508 105.974 4.01571C106.01 4.15633 106.109 4.25008 106.186 4.32821C106.203 4.34383 106.26 4.198 106.302 4.11987C106.247 3.98446 106.203 3.79696 106.126 3.73446C106.051 3.66154 105.996 3.66675 105.969 3.71883C106.139 2.40112 106.7 3.29696 107.061 3.03654C107.061 2.57821 107.061 2.11987 107.061 1.66154C106.816 1.66154 106.574 1.66154 106.332 1.66154C106.299 2.68758 105.881 2.24487 105.603 2.34383C105.658 2.85946 105.425 3.65112 105.966 3.71362ZM106.17 1.65633C106.332 1.75529 106.379 1.65633 106.335 1.32821C106.291 1.03654 106.291 0.718831 106.23 0.447998C106.183 0.234457 106.057 0.281332 106.005 0.562581C105.925 0.97404 105.939 1.38029 106.17 1.65633ZM104.49 1.948C104.19 1.3855 103.824 1.71883 103.494 1.66675C103.349 1.64591 103.192 1.82821 103.041 1.92196C103.53 1.95842 104.017 2.80737 104.49 1.948ZM105.603 2.33862C105.568 2.15633 105.548 1.96362 105.496 1.80737C105.436 1.62508 105.326 1.66675 105.282 1.93758C105.268 2.02612 105.383 2.20321 105.438 2.33862C105.493 2.33862 105.548 2.33862 105.603 2.33862ZM95.7706 3.03133C96.2133 3.17716 96.3178 2.948 96.1886 2.08862C96.1418 1.78133 96.1391 1.44279 96.1363 1.11987C96.1281 0.640706 96.0978 0.265706 95.7624 0.265706C95.4132 0.265706 95.4462 0.697998 95.3967 1.14071C95.3059 1.95321 94.932 1.55737 94.6763 1.65112C94.6763 1.88029 94.6763 2.10946 94.6763 2.33862C95.1437 2.00008 95.3857 2.90112 95.7706 3.03133ZM97.9566 1.95841C97.9566 1.85946 97.9566 1.75529 97.9566 1.65112C97.8603 1.71362 97.7586 1.75008 97.6761 1.84904C97.5799 1.96362 97.6019 2.17196 97.7448 2.25529C97.7916 2.28133 97.8823 2.06258 97.9566 1.95841ZM102.628 3.71883C103.219 3.73966 103.016 2.91154 103.052 2.33862C102.708 2.33862 102.367 2.33862 102.023 2.33862C101.773 2.33862 101.572 2.25008 101.594 1.65633C101.537 1.65633 101.482 1.6355 101.429 1.66154C101.24 1.72925 101.207 2.53133 100.967 2.13029C100.846 1.92717 100.893 1.36987 100.866 0.968831C100.695 0.968831 100.519 1.01571 100.357 0.947998C100.263 0.911539 100.181 0.708414 100.107 0.557373C99.928 0.19279 99.6806 0.109457 99.5293 0.437581C99.2764 0.994873 99.9198 1.06779 99.7713 1.65633C100.258 2.33862 100.742 3.03133 101.229 3.71883C101.699 3.71362 102.163 3.698 102.628 3.71883ZM178.353 8.06779C177.929 8.36987 177.415 7.17196 177.019 8.38029C177.484 8.59904 177.929 8.64591 178.353 8.06779ZM99.0482 2.33862C99.0592 1.86467 98.9354 1.63029 98.6852 1.65112C98.6742 2.12508 98.7979 2.35425 99.0482 2.33862ZM101.02 4.31779C101.069 4.34383 101.163 4.13029 101.234 4.02091C101.234 3.92196 101.234 3.81779 101.234 3.71362C101.138 3.77612 101.036 3.81258 100.954 3.91154C100.857 4.02612 100.879 4.23446 101.02 4.31779ZM98.8364 3.62508C98.8859 3.65112 98.9767 3.43758 99.0482 3.33341C99.0482 3.22925 99.0482 3.13029 99.0482 3.02091C98.9547 3.08862 98.8502 3.12508 98.7677 3.21883C98.6742 3.33341 98.6962 3.54175 98.8364 3.62508ZM99.7768 1.65112C99.5348 1.88029 99.2929 2.10946 99.0482 2.33862C99.0482 2.56779 99.0482 2.79696 99.0482 3.02091C99.6421 3.23446 99.8868 2.77612 99.7768 1.65112ZM89.7517 1.66154C89.9497 1.59383 90.1971 1.78654 90.2659 1.23966C90.2741 1.18758 90.0954 1.05737 89.9579 0.91154C89.8479 1.03133 89.6774 1.13029 89.595 1.34383C89.4905 1.60425 89.5757 1.71883 89.7517 1.66154ZM98.4075 0.979248C98.1628 0.927165 97.9291 1.00529 97.9566 1.65112C98.2013 1.65112 98.4405 1.65112 98.6852 1.65112C98.7264 1.22925 98.589 1.01571 98.4075 0.979248ZM97.1014 2.89071C97.1564 2.86987 97.1867 2.53654 97.2279 2.34904C97.2417 2.01571 97.2032 1.71362 96.9887 1.78133C96.9309 1.80216 96.8842 2.13029 96.8677 2.32821C96.8375 2.65633 96.8897 2.95841 97.1014 2.89071ZM103.054 0.619873C102.961 0.505289 102.87 0.390706 102.735 0.218831C102.612 0.338622 102.469 0.47404 102.326 0.619873C102.419 0.734457 102.515 0.953206 102.601 0.94279C102.757 0.906331 102.903 0.734457 103.054 0.619873ZM101.322 0.28654C101.077 0.234457 100.844 0.312581 100.868 0.958415C101.113 0.958415 101.355 0.958415 101.6 0.958415C101.638 0.546956 101.504 0.328206 101.322 0.28654ZM101.886 1.42196C101.935 1.0105 101.773 0.942791 101.6 0.963623C101.6 1.19279 101.6 1.42716 101.6 1.65112C101.699 1.57821 101.872 1.53133 101.886 1.42196ZM97.3461 4.27092C97.4314 4.23446 97.5111 4.13029 97.5909 4.05216C97.5496 3.97404 97.5111 3.90112 97.4616 3.81258C97.3846 3.89071 97.3049 3.96883 97.2279 4.05216C97.2691 4.13029 97.3186 4.28654 97.3461 4.27092ZM111.793 0.963623C111.757 0.78654 111.738 0.588622 111.688 0.432373C111.625 0.255289 111.518 0.296956 111.474 0.562581C111.457 0.656332 111.573 0.828207 111.628 0.963623C111.685 0.963623 111.738 0.963623 111.793 0.963623ZM133.586 2.09383C133.545 1.948 133.501 1.79696 133.457 1.65112C133.416 1.72925 133.336 1.823 133.341 1.87508C133.361 2.03654 133.416 2.18237 133.457 2.33862C133.498 2.2605 133.539 2.18237 133.586 2.09383ZM161.311 6.11987C161.269 6.03654 161.22 5.89071 161.192 5.90112C161.107 5.93758 161.027 6.03654 160.948 6.11987C160.989 6.198 161.027 6.27091 161.077 6.35946C161.151 6.28133 161.234 6.198 161.311 6.11987ZM165.386 8.06779C165.405 8.22404 165.457 8.37508 165.498 8.52612C165.54 8.448 165.581 8.37508 165.628 8.28133C165.586 8.14071 165.542 7.98967 165.498 7.83862C165.457 7.91154 165.377 8.0105 165.386 8.06779ZM132.478 3.25529C132.486 3.198 132.407 3.09904 132.365 3.02612C132.321 3.17716 132.277 3.32821 132.236 3.46883C132.283 3.56258 132.324 3.64071 132.365 3.71362C132.407 3.56258 132.459 3.41154 132.478 3.25529ZM162.27 7.01571C162.468 6.85425 162.611 6.44279 162.782 6.1355C162.674 6.00008 162.586 5.81258 162.487 5.79696C162.248 5.75529 162.026 5.81258 162.037 6.45321C162.042 6.78133 162.092 7.15633 162.27 7.01571ZM124.543 3.02091C124.642 2.94279 124.818 2.89591 124.829 2.78133C124.864 2.38029 124.705 2.28654 124.532 2.33862C124.427 2.37508 124.254 2.46362 124.243 2.573C124.207 2.97925 124.364 3.05737 124.543 3.02091ZM128.838 1.87508C128.846 1.823 128.766 1.72925 128.725 1.65112C128.681 1.79696 128.637 1.948 128.596 2.09383C128.642 2.18237 128.686 2.2605 128.725 2.33862C128.763 2.18237 128.818 2.03654 128.838 1.87508ZM126.113 2.89591C126.198 2.85946 126.278 2.7605 126.357 2.68237C126.316 2.60425 126.278 2.53133 126.228 2.43758C126.151 2.51571 126.071 2.59904 125.994 2.68237C126.033 2.75529 126.082 2.90633 126.113 2.89591ZM147.519 5.08342C147.601 4.93237 147.884 5.41675 147.832 4.77092C147.818 4.63029 147.67 4.41675 147.593 4.42196C147.442 4.43758 147.296 4.58862 147.145 4.68758C147.202 5.00529 147.323 5.1355 147.519 5.08342ZM137.645 2.68237C137.551 2.56779 137.463 2.45321 137.326 2.28133C137.205 2.40112 137.059 2.53654 136.916 2.68237C137.009 2.79696 137.106 3.01571 137.191 3.00529C137.348 2.96883 137.493 2.79696 137.645 2.68237ZM142.74 4.40112C142.715 4.45321 142.712 4.56258 142.748 4.698C142.784 4.83862 142.883 4.92717 142.96 5.0105C142.973 5.02612 143.034 4.88029 143.075 4.80217C143.017 4.66675 142.973 4.47925 142.899 4.41154C142.825 4.34383 142.77 4.34383 142.74 4.40112C142.709 4.21883 142.69 4.02612 142.638 3.86987C142.577 3.69279 142.467 3.73446 142.423 4.00008C142.41 4.08862 142.522 4.26571 142.58 4.40112C142.632 4.40112 142.687 4.40112 142.74 4.40112ZM154.327 4.62508C154.332 4.56779 154.252 4.47925 154.211 4.40112C154.167 4.54696 154.123 4.698 154.082 4.84383C154.131 4.93237 154.173 5.0105 154.211 5.08342C154.252 4.93237 154.307 4.78654 154.327 4.62508ZM155.432 5.53133C155.391 5.39071 155.347 5.23967 155.303 5.08862C155.261 5.16675 155.184 5.2605 155.19 5.31779C155.209 5.47925 155.261 5.62508 155.303 5.77612C155.344 5.698 155.385 5.62508 155.432 5.53133ZM138.305 3.25529C138.313 3.198 138.233 3.09904 138.192 3.02612C138.148 3.17716 138.104 3.32821 138.063 3.46883C138.109 3.56258 138.153 3.64071 138.192 3.71362C138.23 3.56258 138.285 3.41154 138.305 3.25529ZM111.787 1.28654C111.82 1.66154 111.718 2.12508 112.01 2.2605C112.035 2.27091 112.106 1.93758 112.183 1.67196C112.12 1.46362 112.068 1.14591 111.952 0.989665C111.817 0.791747 111.757 0.953206 111.787 1.28654ZM165.454 7.02092C165.886 7.22925 166.356 7.37508 166.832 6.77612C166.386 6.41675 165.996 6.03654 165.586 5.80217C165.383 5.68237 165.042 5.64071 164.99 6.12508C164.965 6.36987 165.262 6.92717 165.454 7.02092ZM113.253 1.95321C113.305 1.65112 113.253 1.55737 113.079 1.64591C112.926 1.72404 112.758 1.72925 112.615 1.83862C112.502 1.92717 112.527 2.16675 112.675 2.26571C112.893 2.42196 113.104 2.39071 113.253 1.95321ZM115.439 1.65112C115.54 1.573 115.714 1.52091 115.725 1.41154C115.76 1.0105 115.601 0.911539 115.428 0.968831C115.323 1.00008 115.15 1.09383 115.139 1.198C115.106 1.60425 115.263 1.67716 115.439 1.65112ZM113.431 1.66154C113.775 1.54696 114.001 1.71883 113.99 2.52091C113.987 2.72925 114.127 3.323 114.281 2.74487C114.452 2.09904 114.21 1.15112 114.674 0.671956C114.603 0.541748 114.531 0.406332 114.416 0.182373C114.036 0.546956 113.624 0.875082 113.258 1.33862C113.134 1.50008 113.244 1.71883 113.431 1.66154ZM109.733 2.21883C109.884 2.30216 110.049 2.27612 110.146 2.29175C110.379 2.06779 110.385 1.86466 110.209 1.77612C110.06 1.698 109.884 1.70321 109.733 1.77612C109.56 1.86466 109.56 2.11466 109.733 2.21883ZM153.466 5.7605C153.469 5.7605 153.57 5.49487 153.667 5.25529C153.238 5.24487 152.77 4.448 152.575 5.81258C152.561 5.91675 152.548 6.073 152.578 6.13029C152.974 6.948 153.087 5.24487 153.466 5.7605ZM111.012 2.09383C110.971 1.948 110.927 1.79696 110.883 1.65112C110.841 1.72925 110.764 1.823 110.767 1.87508C110.786 2.03654 110.841 2.18237 110.883 2.33862C110.921 2.2605 110.962 2.18237 111.012 2.09383ZM109.607 3.36987C109.565 3.29175 109.519 3.14071 109.488 3.15112C109.403 3.18758 109.324 3.29175 109.244 3.36987C109.285 3.448 109.324 3.52091 109.373 3.61466C109.45 3.53133 109.53 3.45321 109.607 3.36987ZM123.011 1.18758C123.019 1.1355 122.94 1.04175 122.898 0.963623C122.854 1.10946 122.81 1.26571 122.769 1.40633C122.816 1.50008 122.857 1.57821 122.898 1.65112C122.94 1.50008 122.992 1.34904 123.011 1.18758ZM121.378 2.89591C121.463 2.85946 121.543 2.7605 121.623 2.68237C121.581 2.60425 121.543 2.53133 121.493 2.43758C121.416 2.51571 121.337 2.59904 121.26 2.68237C121.301 2.75529 121.35 2.90633 121.378 2.89591ZM123.756 2.09383C123.715 1.948 123.671 1.79696 123.627 1.65112C123.586 1.72925 123.506 1.823 123.512 1.87508C123.531 2.03654 123.586 2.18237 123.627 2.33862C123.668 2.2605 123.707 2.18237 123.756 2.09383ZM121.191 1.18758C121.199 1.1355 121.117 1.04175 121.075 0.963623C121.031 1.10946 120.987 1.26571 120.946 1.40633C120.996 1.50008 121.037 1.57821 121.075 1.65112C121.117 1.50008 121.172 1.34904 121.191 1.18758ZM117.072 3.02612C117.116 2.88029 117.16 2.72925 117.201 2.58341C117.154 2.49487 117.113 2.41675 117.072 2.33862C117.031 2.49487 116.978 2.64071 116.959 2.80216C116.951 2.85946 117.031 2.948 117.072 3.02612ZM118.15 2.31258C118.205 2.30217 118.249 2.04175 118.293 1.90112C118.169 1.50529 117.974 1.65112 117.812 1.66675C117.759 1.67196 117.663 1.99487 117.685 2.09383C117.779 2.48966 117.99 2.33862 118.15 2.31258ZM201.367 19.974C201.34 20.1199 201.362 20.198 201.417 20.2136C201.433 20.1095 201.444 20.0365 201.469 19.9011C201.433 19.9167 201.403 19.948 201.367 19.974ZM191.515 14.9167C191.518 14.9167 191.518 14.9167 191.515 14.9167C191.496 14.8386 191.49 14.7865 191.477 14.724C191.37 14.7292 191.213 14.5626 191.183 14.8699C191.287 14.974 191.4 15.0261 191.515 14.9167ZM203.589 18.8334C203.677 18.922 203.781 19.0053 203.902 19.0834C203.872 19.0053 203.839 18.922 203.812 18.8386C203.726 18.8334 203.633 18.8126 203.589 18.8334ZM187.894 11.9636C187.888 11.9688 187.886 11.9688 187.88 11.974C187.886 12.0209 187.886 12.073 187.894 12.1199C187.894 12.1667 187.894 12.0678 187.894 11.9636ZM187.405 9.35425C187.187 9.2605 187.152 9.56779 187.163 9.89592C187.286 9.89592 187.407 9.89592 187.528 9.89592C187.487 9.70842 187.462 9.38029 187.405 9.35425ZM173.692 11.2761C173.692 11.047 173.692 10.8126 173.692 10.5886C173.568 10.5886 173.447 10.5886 173.329 10.5886C173.329 10.8178 173.329 11.0522 173.329 11.2761C173.45 11.2761 173.568 11.2761 173.692 11.2761ZM188.257 15.4011C188.378 15.4011 188.499 15.4011 188.62 15.4011C188.62 14.9428 188.62 14.4845 188.62 14.0261C188.496 14.0261 188.375 14.0261 188.257 14.0261C188.257 14.4845 188.257 14.948 188.257 15.4011ZM93.9834 3.09383C94.0328 4.23446 94.6515 3.85425 94.9045 3.53654C95.2427 3.10946 94.514 2.92717 94.679 2.33862C94.5003 2.35946 94.3408 2.29175 94.393 1.88029C94.4068 1.76571 94.58 1.72404 94.679 1.65112C94.6295 1.09904 95.0475 0.91154 95.0117 0.619873C94.9485 0.130289 94.5883 0.135498 94.415 0.307373C94.0053 0.703206 93.4142 0.56779 93.2245 1.65112C93.8926 1.36987 93.9339 2.02612 93.9834 3.09383ZM182.793 9.21362C182.774 8.36987 182.447 8.35425 182.208 8.66154C181.996 8.93237 181.685 9.22404 181.702 9.89592C181.947 9.89592 182.189 9.89592 182.43 9.89592C182.422 9.42196 182.54 9.198 182.793 9.21362ZM80.8869 1.25008C80.8732 1.34383 80.9886 1.51571 81.0436 1.65112C81.0986 1.65112 81.1509 1.65112 81.2059 1.65112C81.1729 1.46883 81.1536 1.27612 81.1014 1.11987C81.0409 0.937581 80.9309 0.984457 80.8869 1.25008ZM51.5897 4.54175C51.3724 4.448 51.3367 4.75529 51.3477 5.08342C51.4714 5.08342 51.5924 5.08342 51.7106 5.08342C51.6721 4.89592 51.6502 4.56779 51.5897 4.54175ZM87.0241 2.32821C87.1313 2.29175 87.3073 2.21883 87.3183 2.10425C87.3705 1.68237 87.2028 1.63029 87.0241 1.64591C86.9058 1.65633 86.7848 1.64591 86.6694 1.64591C86.6694 1.87508 86.6694 2.10425 86.6694 2.33341C86.7876 2.33862 86.9086 2.36987 87.0241 2.32821ZM179.395 10.7345C179.178 10.6407 179.139 10.9428 179.153 11.2761C179.274 11.2761 179.395 11.2761 179.516 11.2761C179.477 11.0886 179.455 10.7605 179.395 10.7345ZM175.155 8.823C175.191 8.96362 175.287 9.05737 175.367 9.14071C175.38 9.15112 175.438 9.00529 175.479 8.92717C175.424 8.79175 175.38 8.60946 175.306 8.54175C175.229 8.46883 175.174 8.46883 175.147 8.52612C175.185 8.10946 175.051 7.89592 174.872 7.85425C174.627 7.80217 174.393 7.88029 174.421 8.52612C174.663 8.52612 174.905 8.52612 175.147 8.52612C175.116 8.58341 175.116 8.68758 175.155 8.823ZM82.5862 4.85425C82.6357 4.448 82.4734 4.37508 82.3002 4.40112C82.3002 4.63029 82.3002 4.85946 82.3002 5.08342C82.3992 5.0105 82.5752 4.96883 82.5862 4.85425ZM84.1205 4.40112C84.1177 4.39071 84.1177 4.3855 84.115 4.37508C84.0902 4.3855 84.0655 4.40112 84.0407 4.40112C84.0105 4.40112 84.0655 4.40112 84.1205 4.40112ZM115.799 11.2709C115.796 11.2761 115.796 11.2761 115.799 11.2709C115.796 11.2761 115.799 11.2761 115.799 11.2709C115.799 11.2761 115.799 11.2761 115.799 11.2709ZM178.405 13.5105C178.411 13.5105 178.416 13.5157 178.422 13.5157C178.416 13.5105 178.411 13.5105 178.405 13.5105ZM128.909 11.7449C128.882 11.9324 128.926 12.0157 129.027 11.9636C129.022 11.8542 129.011 11.7709 129.011 11.6511C128.967 11.6772 128.945 11.7136 128.909 11.7449ZM82.6687 15.3855C82.6879 15.5886 82.7264 15.922 82.7841 15.9428C83.0096 16.0417 83.0344 15.724 83.0289 15.3855C83.0234 15.1615 83.0289 14.9376 83.0289 14.7136C82.9051 14.7136 82.7841 14.7136 82.6659 14.7136C82.6632 14.9428 82.6467 15.172 82.6687 15.3855ZM202.459 17.4584C202.459 17.4636 202.459 17.4636 202.459 17.4584V17.4584ZM213.743 17.1251C213.82 17.2084 213.903 17.2917 213.977 17.3699C214.026 17.2761 214.068 17.198 214.106 17.1251C214.026 17.047 213.947 16.9428 213.861 16.9063C213.834 16.8959 213.784 17.047 213.743 17.1251ZM227.549 26.8022C227.508 26.8803 227.447 27.0313 227.436 27.0157C227.357 26.9376 227.26 26.8438 227.222 26.7084C227.186 26.5626 227.186 26.4636 227.216 26.4063C226.988 26.3334 226.875 26.5938 226.862 26.9532C226.842 27.4584 226.749 28.0001 226.471 27.7553C225.322 26.7292 223.988 27.1147 222.861 26.047C222.443 25.6511 222.102 25.4845 221.747 26.1042C221.629 26.3126 221.536 26.4428 221.492 26.2449C221.192 24.8178 220.315 25.3803 219.872 24.5417C219.416 23.6772 219.132 23.1928 219.201 24.9897C219.22 25.4584 219.168 25.9115 218.841 25.3803C218.536 24.8907 218.066 24.9115 217.835 24.1772C217.703 23.7553 217.494 23.6251 217.224 23.6511C216.801 23.6876 216.457 23.6824 216.96 24.6251C217.04 24.7709 217.018 25.3282 216.933 25.5105C216.732 25.9272 216.655 25.3542 216.57 25.1876C216.212 24.5001 215.893 23.8334 215.415 24.9324C215.338 25.1147 215.027 24.8907 214.915 25.0574C214.337 25.9272 214.744 22.6355 213.903 24.2709C213.603 24.849 213.067 24.1147 212.676 23.4532C212.341 22.8907 211.73 22.0209 211.549 23.9324C211.5 24.448 211.126 24.5626 210.985 24.2449C210.226 22.5105 209 23.4949 208.117 22.3855C207.689 21.8542 207.15 22.8126 206.932 23.2657C206.349 24.5001 205.808 22.6928 205.252 23.4636C205.021 23.7813 204.837 22.9324 204.653 22.5834C204.537 22.3647 204.804 21.599 204.378 21.8074C204.298 21.8438 204.312 22.4063 204.241 22.6928C204.144 23.0678 203.922 22.8907 203.768 22.9949C203.374 23.2605 203.014 21.7553 202.624 22.948C202.352 21.948 201.601 21.9897 201.37 20.9115C201.34 20.7605 201.364 20.5365 201.417 20.2292C201.447 20.2397 201.472 20.2657 201.524 20.2188C201.598 20.1511 201.645 19.9636 201.689 19.8178C201.697 19.7917 201.62 19.6824 201.469 19.9167C201.507 19.7084 201.406 19.7917 201.37 19.9272C201.362 19.9584 201.373 19.9636 201.367 19.9897C200.952 20.3334 200.754 21.6355 200.303 20.6355C200.196 20.3959 199.965 20.0938 199.937 20.5574C199.816 22.474 199.217 21.6511 198.818 21.198C198.458 20.797 198.032 20.7188 197.804 20.9688C197.127 21.7032 196.599 21.4584 195.887 21.0313C195.307 20.6824 194.609 20.6199 194.144 19.8959C193.74 19.2709 193.124 20.0678 192.879 18.9845C192.494 19.3647 192.101 20.0522 191.743 18.9063C191.573 19.1928 191.411 19.5053 191.229 19.7605C191.122 19.9063 191.004 20.5105 190.855 19.948C190.465 18.4688 189.893 19.5417 189.42 19.573C188.812 19.6147 188.474 19.422 188.612 18.0938C188.628 17.9324 188.518 17.724 188.471 17.5313C188.4 17.6615 188.262 17.8126 188.268 17.9324C188.32 19.0886 187.828 19.0313 187.556 18.797C187.047 18.3595 186.481 18.698 185.994 18.172C185.752 17.9063 185.331 16.797 185.301 18.5313C185.293 19.0053 185.034 18.6251 184.946 18.4063C184.806 18.0678 184.616 18.099 184.454 18.1667C183.28 18.6459 182.947 18.5261 182.07 17.1876C181.652 16.547 181.353 17.4532 181.111 17.6824C180.47 18.2865 180.366 18.4949 180.28 17.6355C180.121 16.0001 179.832 17.547 179.673 17.4272C178.993 16.922 178.507 17.4688 177.891 17.948C177.462 18.2813 176.568 17.6876 176.23 16.9376C175.609 15.573 174.938 16.2917 174.426 16.5626C173.799 16.8907 173.706 16.7345 173.687 15.6511C173.673 14.8907 173.865 14.0626 173.467 13.198C173.31 13.573 173.019 14.1772 173.043 14.2345C173.764 15.7084 172.986 16.3126 172.595 17.1407C172.408 17.5313 172.139 17.6824 171.985 17.2865C171.501 16.0261 171.182 17.448 170.786 17.4636C170.75 16.5938 170.47 16.7032 170.167 16.9115C170.032 17.0053 169.988 17.599 169.799 17.2657C169.705 17.1042 169.669 16.5261 169.741 16.3907C170.164 15.6095 170.06 15.4897 169.521 15.3386C169.243 15.2605 169.089 14.1876 168.922 15.6251C168.828 16.4636 168.41 17.349 167.72 16.2553C167.327 15.6303 166.587 16.3751 166.089 15.448C165.955 15.198 165.562 15.3542 165.284 15.7761C164.739 16.599 164.58 15.9428 164.599 14.9376C164.607 14.5938 164.599 14.2657 164.423 14.047C164.382 14.1147 164.33 14.1667 164.299 14.2553C164.102 14.8022 164.42 15.6147 164.047 16.0782C163.923 15.1876 163.125 15.7865 163.109 14.4584C163.101 13.8334 162.449 13.9272 162.471 14.3386C162.551 15.8126 161.679 15.1303 161.558 15.9897C161.19 14.5365 160.442 16.6563 160.029 15.4167C159.952 15.1876 159.521 15.7032 159.603 14.9167C159.617 14.7865 159.914 14.7865 160.071 14.6667C160.227 14.547 160.252 14.3074 160.137 14.198C159.631 13.7501 158.976 14.4376 158.539 13.4428C158.369 13.7657 158.184 14.073 158.03 14.4167C157.841 14.8334 157.695 14.5417 157.698 14.2657C157.703 13.5157 157.527 13.1876 157.164 13.3595C156.886 13.4949 157.013 14.1303 156.892 14.4688C156.837 14.6147 156.694 14.6355 156.59 14.7136C156.551 14.5261 156.526 14.1928 156.469 14.172C156.251 14.0782 156.216 14.3855 156.227 14.7136C155.624 14.948 156.1 13.2397 155.473 13.2761C155.107 13.297 154.615 12.1876 154.767 13.974C154.816 14.573 154.604 14.7917 154.335 14.7084C153.873 14.5522 154.129 14.2032 154.294 13.8959C154.335 13.8178 154.406 13.7136 154.401 13.6459C154.36 13.1147 154.53 12.5157 154.258 12.0105C153.829 12.5001 153.386 13.1303 153.067 13.6928C152.754 14.2501 152.792 14.9688 152.369 13.9688C152.003 13.1095 151.83 13.297 151.849 14.3647C151.849 14.4324 151.643 14.6095 151.615 14.5626C151.442 14.2657 151.165 13.9324 151.151 13.5834C151.074 11.349 150.59 13.9949 150.403 13.3386C150.356 12.922 150.543 12.3022 150.274 12.1147C150.026 11.9376 149.484 11.9688 149.468 12.0938C149.237 13.8647 148.484 13.672 147.994 13.1407C147.398 12.4897 146.889 13.0313 146.391 12.9011C145.575 12.6824 144.736 12.922 143.941 12.4636C143.774 12.3647 143.628 11.6095 143.499 12.4636C143.463 12.7084 143.562 13.1355 143.672 13.3126C143.804 13.5157 144.216 13.1042 144.123 13.797C144.057 14.2865 143.702 13.9845 143.477 14.0157C143.38 14.0313 143.185 13.8595 143.185 13.7865C143.259 11.0001 142.151 12.2136 141.478 11.9688C141.42 11.948 141.359 11.9636 141.296 11.9636C141.126 11.3751 141.849 11.2761 141.524 10.724C141.255 10.2709 141.005 10.7449 140.812 11.1667C140.705 11.4011 140.515 11.5522 140.567 11.9636C140.023 12.5574 140.023 12.5574 139.476 11.9636C139.437 11.7761 139.413 11.448 139.355 11.422C139.138 11.3282 139.099 11.6355 139.113 11.9636C138.775 11.8542 138.379 12.2605 138.093 11.7397C137.485 10.6251 137.378 11.422 137.21 12.4167C137.128 12.9167 136.784 12.5678 136.564 12.6511C136.05 11.698 135.486 11.2292 134.791 11.9636C134.749 12.0053 133.726 11.948 133.658 11.9688C133.157 12.1199 132.731 11.224 132.14 11.8959C131.631 12.4792 130.894 11.8542 130.405 11.5157C129.547 10.9167 129.646 11.6928 129.649 12.6615C129.649 12.8855 129.649 13.1147 129.649 13.3386C129.294 13.1928 129.074 12.7865 129.041 11.9584C129.055 11.948 129.06 11.9688 129.08 11.9532C129.154 11.8855 129.203 11.698 129.247 11.5522C129.253 11.5261 129.176 11.4115 129.03 11.6459C129.066 11.4428 128.967 11.5261 128.928 11.6615C128.92 11.698 128.931 11.7084 128.926 11.7397C128.604 12.0157 128.609 12.4324 128.541 12.8074C128.472 13.1928 128.268 13.4897 128.12 13.8178C128.087 13.8907 128.002 13.9897 127.999 13.9845C127.413 12.6876 127.323 14.3647 126.987 14.5678C126.921 14.6042 126.748 14.4167 126.751 14.3699C126.817 13.5313 126.316 13.0105 126.434 11.9636C126.465 11.9636 126.487 11.9949 126.536 11.9532C126.608 11.8855 126.657 11.698 126.701 11.5522C126.707 11.5261 126.63 11.4115 126.484 11.6459C126.52 11.4428 126.421 11.5261 126.385 11.6615C126.374 11.6928 126.385 11.7032 126.382 11.7292C125.698 12.2605 126.291 13.6407 125.827 14.047C125.681 14.1772 125.552 14.6615 125.447 14.6251C125.255 14.5574 125.288 14.1095 125.282 13.7761C125.271 13.3803 125.373 12.7865 125.071 12.7501C124.895 12.724 124.983 13.5001 124.911 13.5626C124.424 14.0157 124.017 14.9272 123.393 14.698C123.292 14.6615 123.146 14.5261 123.118 14.3699C123.058 14.0365 123.839 13.7449 123.165 13.3595C122.75 13.1251 122.791 14.2709 122.709 14.3178C122.304 14.5313 121.807 14.1095 121.686 13.5261C121.535 12.8074 121.361 12.3126 120.913 12.047C121.026 11.9636 121.04 11.3699 121.133 11.1355C121.389 10.5105 121.001 10.6042 120.844 10.6042C120.594 10.6095 120.234 10.3334 120.19 11.1772C120.165 11.6824 120.275 11.9949 120.776 11.9636C120.119 13.0522 120.113 13.0886 119.423 12.8803C119.313 12.8438 119.2 12.573 119.173 12.8699C118.994 14.7605 118.488 14.2188 117.919 13.5417C117.625 13.1928 117.583 13.922 117.413 14.1251C116.86 14.797 116.863 14.8282 116.173 13.6459C115.972 13.297 115.758 13.1615 115.554 13.5157C114.875 14.6772 114.259 13.9324 113.555 13.3386C113.528 13.3386 113.583 13.3386 113.635 13.3386C113.602 13.1563 113.583 12.9636 113.53 12.8074C113.47 12.6303 113.36 12.672 113.316 12.9376C113.302 13.0313 113.415 13.2032 113.555 13.3386C113.635 13.4532 113.662 13.6303 113.632 13.672C112.939 14.6876 111.955 13.2032 111.309 14.6355C111.028 13.6459 110.399 14.3907 110.082 13.797C109.604 12.9011 109.051 13.5157 108.545 13.349C108.202 13.2345 108.202 13.7345 108.166 14.2032C108.141 14.5574 107.888 14.922 107.811 14.6876C107.468 13.6303 106.453 14.8542 106.335 13.0574C106.304 12.5626 105.911 12.4428 105.774 12.7709C105.532 13.3595 105.128 13.2084 104.875 13.7032C104.591 14.2605 104.154 14.2605 103.918 13.8282C103.431 12.9324 102.859 13.2605 102.389 13.4011C101.561 13.6563 100.778 14.2709 99.9583 13.3595C99.8373 13.2292 99.6366 13.3178 99.4716 13.5886C99.1031 14.1928 98.314 14.2345 97.9923 13.6772C97.8741 13.4688 98.1298 12.7292 97.7283 12.823C97.6678 12.8386 97.6431 13.3959 97.5991 13.7136C97.2142 13.5053 96.8595 13.672 96.5213 14.0313C96.5103 13.2657 96.6037 12.198 95.9081 12.8178C95.2812 13.3751 94.1841 14.0261 93.3894 14.0313C92.6058 14.0313 91.7782 13.7501 91.0413 14.1095C90.2521 14.4897 89.54 15.2501 88.7563 14.1824C88.7206 14.1303 88.5199 14.3178 88.5199 14.3803C88.5501 15.0626 88.4539 15.5261 88.0387 15.3907C87.7252 15.2917 87.838 14.7032 87.7472 14.3438C87.6235 13.8542 87.4668 14.1876 87.4255 14.4845C87.3595 14.9688 87.409 15.9011 87.0048 14.922C86.6556 14.073 86.2404 13.9324 85.7427 14.0261C85.5805 14.0522 83.8565 14.9428 83.7438 15.1303C83.3836 15.7345 83.3561 14.3855 83.0481 14.7188C83.0096 14.5313 82.9849 14.198 82.9271 14.1772C82.7099 14.0834 82.6714 14.3907 82.6852 14.7188C82.2892 14.6199 81.83 15.0313 81.5193 14.2345C81.4258 13.9949 81.2746 14.0105 81.2719 14.3126C81.2526 15.922 80.5102 14.6772 80.15 15.3126C79.8695 15.8178 79.1491 15.2865 78.7037 16.073C78.5745 16.3022 78.3875 15.9688 78.3133 15.6251C78.2528 15.3334 78.195 15.0313 78.1373 14.7345C77.9696 14.9376 77.9558 15.2449 77.9366 15.5834C77.9311 15.7553 77.8183 15.9063 77.7523 16.0678C77.1227 14.4897 76.9412 17.1511 76.6195 16.5938C75.8716 15.3074 74.8295 16.9688 74.1146 15.4688C73.8974 15.0157 73.6004 15.724 73.3859 16.1042C73.2209 16.4011 73.1055 16.7917 72.8113 16.8022C72.3438 16.8178 72.3273 15.1511 71.7472 15.8022C71.4502 16.1355 71.2605 17.2292 70.8398 16.099C70.0671 17.2553 69.0993 15.7657 68.3184 16.7553C67.9362 17.2397 67.576 15.8126 67.488 16.3751C67.301 17.5678 67.158 17.5938 66.8033 16.698C66.5696 16.1042 66.4184 16.2136 66.1434 16.672C65.9289 17.0261 65.5798 17.1928 65.28 17.2397C64.9583 17.2917 64.9501 15.4376 64.3837 16.6251C64.0042 17.4272 63.677 15.6042 63.2096 16.6355C63.0253 17.0417 62.4122 16.7709 61.9942 16.7761C61.7138 16.7761 61.557 16.9532 61.557 17.5417C61.557 17.7345 61.4608 17.922 61.4086 18.1042C60.4242 16.3647 59.756 18.2292 58.9587 18.8074C58.6397 19.0365 58.3262 18.9324 58.2383 17.8803C58.1833 17.2292 57.6966 17.1042 57.5618 18.1511C57.5893 18.099 57.6443 18.0938 57.7186 18.1667C57.7928 18.2345 57.8368 18.422 57.8945 18.5522C57.8533 18.6303 57.7928 18.7761 57.7791 18.7657C57.7021 18.6824 57.6031 18.5938 57.5673 18.448C57.5316 18.3074 57.5316 18.2032 57.5591 18.1459C56.8139 17.5574 56.088 17.8074 55.3237 18.1095C54.5235 18.4272 53.6381 17.7397 52.871 18.4845C52.5603 18.7813 52.5218 18.4688 52.3403 18.297C52.0543 18.0261 51.7574 17.9792 51.7326 18.849C51.7134 19.4845 51.5677 19.6824 51.3532 19.1303C50.8858 17.9376 50.4623 18.1303 50.3001 19.4115C50.0966 21.0209 49.8519 19.599 49.6704 19.5053C49.0298 19.1824 49.346 20.9063 48.95 20.7345C48.6366 20.599 48.5211 19.6615 48.1334 19.5417C48.0344 19.5105 47.8364 19.6199 47.8254 19.7188C47.666 21.2449 47.3442 21.2449 46.7943 20.2449C46.6321 19.9532 46.3681 20.3438 46.1867 20.698C45.9942 21.073 45.7825 20.974 45.5735 20.6303C44.6304 19.073 44.5809 19.0886 43.723 20.9063C43.2638 20.8647 42.7689 21.1615 42.4307 20.198C42.0485 19.1251 41.6663 19.4428 41.3061 20.297C41.1603 20.6355 40.9596 21.1355 40.7286 20.8751C40.2035 20.2865 39.725 19.6511 39.2054 20.8334C38.7544 19.7657 38.3392 21.3334 37.814 20.9011C37.7893 20.9011 37.8415 20.9011 37.8965 20.9011C37.8608 20.7188 37.8415 20.5261 37.7893 20.3699C37.7288 20.1928 37.6188 20.2345 37.5748 20.5001C37.5611 20.5938 37.6766 20.7657 37.814 20.9011C37.9213 21.5365 37.5968 21.7865 37.4676 21.5522C36.8957 20.5261 36.9232 21.8386 36.6592 22.0834C36.3265 22.3907 36.607 20.5574 35.9855 20.9063C35.8096 21.0001 35.6748 21.1772 35.7133 21.5886C35.7436 21.5365 35.7986 21.5313 35.8728 21.599C35.9443 21.672 35.9883 21.8595 36.046 21.9897C36.0048 22.0678 35.9443 22.2136 35.9333 22.198C35.8536 22.1147 35.7546 22.0261 35.7216 21.8855C35.6831 21.7449 35.6831 21.6407 35.7133 21.5886C35.4219 21.8699 35.3366 20.474 34.8637 21.3647C34.399 22.2345 33.6594 20.7032 33.0379 21.5574C32.8867 21.7657 32.7492 20.6563 32.532 21.1199C32.0948 22.0574 31.4679 21.1511 31.0445 21.8282C30.566 22.5834 30.0106 22.5157 29.5789 21.974C28.82 21.0209 28.7073 22.198 28.4323 22.9636C28.4626 22.9115 28.5176 22.9063 28.5918 22.9792C28.666 23.047 28.71 23.2345 28.7678 23.3647C28.7265 23.4428 28.666 23.5886 28.6523 23.5782C28.5753 23.4949 28.4736 23.4063 28.4406 23.2605C28.4048 23.1199 28.4048 23.0157 28.4323 22.9636C28.0529 23.1042 27.8604 21.4532 27.393 22.547C27.0053 23.4532 26.898 22.0105 26.5488 22.2449C26.1859 22.4949 25.7624 22.0574 25.3967 22.7813C25.152 23.2657 24.7093 23.4636 24.3409 23.6199C24.1484 23.698 23.8707 23.8126 23.879 22.9845C24.1649 22.948 24.4619 23.0105 24.4261 22.2136C24.4179 22.0261 24.3409 21.8542 23.9504 22.1251C23.9917 21.8803 23.8955 22.0834 23.791 22.3907C23.4665 22.9428 23.3785 23.2032 23.34 23.5053C23.3125 23.7136 23.329 24.0157 23.2603 24.1199C22.9991 24.5053 22.9826 23.9792 22.9853 23.7449C22.9936 23.0522 22.6829 22.5261 22.4931 22.4845C22.2182 22.4272 21.7178 22.7709 21.6545 23.1407C21.4813 24.2136 21.1926 24.4897 20.6454 24.3699C20.3677 24.3074 20.0185 24.0834 19.7875 24.5417C19.3943 25.3334 19.3696 24.8542 19.3256 24.172C19.3091 23.9376 19.2898 23.5522 19.0039 23.8959C18.0388 25.0417 17.0269 24.0157 16.0398 23.8907C15.7868 23.8595 15.3414 23.474 15.2204 23.698C14.5165 25.0105 13.4441 23.698 12.776 25.0313C11.4644 24.6615 10.2298 26.2865 8.94025 25.6615C8.39033 25.3959 8.01363 26.6615 7.38946 25.7917C6.91378 25.1199 6.29236 26.349 5.75619 26.3126C5.40423 26.2813 5.11552 25.448 5.07428 26.8282C5.06328 27.2032 4.77732 27.0886 4.60409 27.0938C3.93868 27.1042 3.25403 26.9115 2.61337 27.1563C2.0442 27.3699 1.59601 26.2292 1.04608 26.8959C0.773868 27.2292 0.773869 26.7449 0.76562 26.4897C0.754622 25.948 0.680381 25.3699 0.98009 24.9428C1.2633 24.5365 0.963592 24.3647 0.850858 24.3699C0.427416 24.3803 0.265188 23.8595 0.435665 23.3386C0.534652 23.0209 0.699629 21.823 1.16981 22.7292C1.42003 23.2136 1.42553 22.547 1.56026 22.4897C2.45389 22.1095 3.31727 21.6095 4.26589 21.5105C5.56371 21.3803 6.85329 20.6824 8.14286 20.2136C8.32983 20.1459 8.43432 19.9011 8.40957 19.4897C8.36833 18.7917 8.21435 18.7813 8.01088 19.2657C7.87065 19.599 7.69467 19.5157 7.52144 19.5313C6.94402 19.6095 6.4051 19.6355 6.57282 18.0105C6.60857 17.6876 6.45184 17.3907 6.22362 17.4688C6.62232 15.3334 7.90639 15.9584 8.60205 14.7449C9.05573 16.2449 9.52317 14.9272 9.93561 14.672C10.3536 14.422 10.6065 13.6407 11.1427 14.5938C11.5331 15.2865 11.9841 13.4845 12.5972 13.9845C12.7127 14.0782 12.864 13.2397 13.1609 13.3438C14.5412 13.849 15.8281 12.6355 17.1946 12.547C18.3055 12.4792 19.5043 12.3699 20.5464 11.3438C20.9589 10.9376 21.3383 12.6199 21.6903 11.2865C22.1714 11.6876 22.3007 10.3074 22.8148 10.547C23.274 10.7605 23.8432 10.323 24.2529 10.6511C24.8963 11.172 25.2455 9.19279 25.8697 10.2084C26.2381 10.797 26.8128 9.02092 27.1318 10.5417C27.217 10.4115 27.3022 10.2813 27.3902 10.1511L28.7045 9.21883C30.0794 9.61467 31.3882 8.58342 32.7382 8.54696C33.5054 8.53133 34.146 7.58862 34.9572 7.78654C35.6941 7.97404 36.4667 8.06779 37.1871 7.20842C37.4016 6.95321 37.8855 6.8855 38.21 7.3855C38.3145 7.54696 38.4135 8.06779 38.5894 7.55217C39.0789 6.1355 39.8543 6.29696 40.5334 6.5105C41.5178 6.81258 42.3619 5.83862 43.2968 5.73967C44.2234 5.64071 45.205 6.3855 46.0849 5.16675C46.1757 5.04696 46.3131 5.64071 46.6376 5.87508C46.6321 5.93237 46.6183 5.98446 46.6431 6.07821C46.6788 6.21883 46.7778 6.31258 46.8548 6.39592C46.8686 6.40633 46.9291 6.2605 46.8053 5.98446C46.9126 6.05216 46.8686 5.86467 46.7971 5.79696C46.7861 5.78654 46.7833 5.80217 46.7778 5.79696C46.6733 5.16154 46.8658 5.06779 47.0858 5.10425C47.6687 5.20321 48.3011 5.11466 48.8153 5.52612C49.2497 5.88029 49.4257 5.65112 49.6952 5.18758C49.9481 4.75008 50.9737 4.74487 51.3697 5.09383C51.4082 5.28133 51.4329 5.61467 51.4934 5.64071C51.7106 5.72925 51.7464 5.42717 51.7326 5.09383C52.0983 5.13029 52.2578 4.05737 52.6648 4.41675C53.6766 5.31258 54.5703 4.48446 55.4996 3.84904C56.1018 3.448 56.3465 4.28654 56.4565 5.18237C56.5335 5.81258 56.77 5.92196 56.9707 5.75529C57.3776 5.40112 56.9569 5.16154 56.8937 4.85946C56.781 4.28654 56.7645 3.65112 57.2099 3.73966C58.0788 3.92716 58.9971 3.1355 59.8193 4.20321C60.4215 3.26571 61.2436 4.75008 61.821 3.573C62.2197 2.75008 62.6294 2.88029 63.0583 3.45321C63.1078 3.51571 63.1601 3.69279 63.1848 3.67716C63.7787 3.28133 64.4057 3.17196 65.0078 2.92196C65.5687 2.69279 65.9097 4.05217 66.5724 3.14071C66.9546 2.61467 67.7739 2.18758 68.3981 3.02612C69.1405 1.80737 69.9407 3.55216 70.6143 2.96883C71.3512 2.323 72.0826 2.47404 72.8278 2.30216C73.2539 2.198 73.5069 2.73966 73.9441 3.09383C73.9331 3.15112 73.9221 3.21362 73.9523 3.32821C73.9881 3.46362 74.0843 3.55737 74.1641 3.6355C74.1778 3.65112 74.2356 3.50008 74.1118 3.22404C74.2218 3.29696 74.1778 3.10425 74.1063 3.03654C74.1008 3.03133 74.1008 3.04175 74.0953 3.03654C73.9991 2.28654 74.2741 1.89071 74.461 1.79175C74.736 1.65112 74.5793 2.52091 74.7112 2.71883C75.1374 3.34904 75.7699 3.17717 76.1053 2.21362C76.2703 1.73446 76.4133 1.71883 76.6442 1.64071C77.1474 1.46362 77.6423 3.34904 78.1428 1.65633C78.7312 1.78133 79.2756 1.58342 79.8036 1.00529C79.952 0.843832 80.2985 0.744872 80.4497 1.23446C80.5817 1.66154 80.513 2.09904 80.293 2.3855C80.1527 2.573 80.117 2.73966 80.238 2.85946C80.3315 2.95841 80.4717 3.07821 80.5569 3.01571C80.8841 2.76571 81.1674 2.39071 81.2306 1.65633C81.5963 1.70321 81.7228 0.833415 82.1545 0.921956C82.7099 1.03654 82.7924 1.22404 82.3607 1.92716C82.4239 2.06258 82.4789 2.29696 82.5559 2.323C82.7236 2.38029 82.9904 2.40112 83.0124 2.04696C83.1196 0.0469564 83.8922 1.25529 84.3542 1.04696C84.4752 0.989666 84.5274 1.35946 84.4092 1.48446C84.3129 1.58341 84.1919 1.58341 84.0875 1.66154C83.9857 1.73967 83.895 1.85946 83.796 1.95841C83.873 2.08862 83.9527 2.323 84.0297 2.323C84.5439 2.323 85.0636 2.53133 85.4815 1.57821C85.8417 0.750081 86.3119 0.270914 86.6914 1.65633C86.5896 1.72925 86.4136 1.77612 86.4026 1.8855C86.3531 2.29696 86.5154 2.36467 86.6914 2.33862C86.5676 2.80217 86.4466 3.25529 86.3257 3.71883C86.0974 3.48966 85.8747 3.22925 85.6355 3.04696C85.5558 2.98446 85.4045 3.073 85.3413 3.19279C85.1406 3.58341 85.4513 3.61987 85.4898 3.85425C85.5228 4.04175 85.5613 4.22404 85.597 4.40633C85.421 4.40633 85.1323 4.52612 85.0883 4.3855C84.7694 3.33862 84.4889 4.26571 84.137 4.38029C84.1067 4.20842 84.0875 4.02091 84.038 3.87508C83.9775 3.69279 83.8675 3.73446 83.8235 4.00529C83.8098 4.09383 83.9225 4.27091 84.0627 4.40633C84.1177 5.25529 83.7795 5.28133 83.554 4.948C83.3093 4.58341 83.3781 3.7605 83.0536 3.33862C82.8391 3.06779 82.6522 2.89071 82.4404 3.16675C82.204 3.47925 82.3662 3.98966 82.3222 4.40633C82.2205 4.47925 82.0445 4.52612 82.0335 4.6355C81.984 5.04696 82.1462 5.11467 82.3222 5.08862C82.3634 5.5105 82.226 5.73967 82.0445 5.7605C81.7008 5.81258 81.3323 5.91675 81.1069 5.20321C80.3617 5.81779 80.6889 3.05737 79.8943 3.823C80.0675 4.67196 80.205 5.53133 80.1363 6.46362C79.6853 6.33342 79.5891 3.92196 78.8054 5.74487C78.7092 5.96362 78.3325 5.68237 78.107 5.79696C77.6836 6.00529 77.5571 4.95321 77.1804 5.08862C76.7955 5.23446 76.6827 6.09904 76.3665 6.29696C76.0861 6.47404 75.6874 6.87508 75.5526 5.76571C75.5636 5.76571 75.5636 5.77612 75.5719 5.77092C75.7726 5.74487 76.0861 5.90112 76.0696 5.36467C76.0613 5.04696 75.7781 4.7605 75.5086 5.11467C75.4399 4.56258 75.3574 4.80737 75.4097 5.12508C75.4179 5.17196 75.4124 5.24487 75.4014 5.31779C75.1814 5.71883 75.0165 5.698 74.8817 5.78654C74.1668 6.25008 73.4684 6.85946 72.7398 5.80217C72.6628 5.68758 72.4483 6.04696 72.4895 6.45321C72.517 6.40112 72.5748 6.39591 72.6463 6.46883C72.7205 6.53654 72.7645 6.72404 72.8223 6.85425C72.781 6.93237 72.7205 7.07821 72.7068 7.06779C72.6298 6.98446 72.5308 6.89592 72.495 6.75529C72.4593 6.61467 72.4593 6.5105 72.4895 6.45842C72.3081 6.45842 72.0579 6.31258 71.9589 6.47925C71.4199 7.41154 71.002 7.92717 71.0378 5.87508C71.0515 5.00529 70.7463 5.08341 70.4438 5.07821C69.9461 5.073 69.6712 5.6355 69.5914 6.45321C69.509 7.30737 69.19 7.36987 68.9838 6.98446C68.5686 6.20841 68.2964 6.37508 67.9499 7.08342C67.8674 7.25529 67.5952 7.28133 67.4742 6.94279C67.147 6.02091 67.0288 6.95841 66.8308 7.18237C66.6823 7.34383 66.6466 7.56779 66.7621 7.65112C66.9793 7.80737 66.9518 8.66154 67.4165 8.23446C67.6997 7.97925 68.1176 8.03133 68.4806 7.8855C69.0003 7.67196 69.5639 7.89591 70.1029 7.81779C71.266 7.65112 72.4703 8.38029 73.5839 7.16154C73.7186 7.01571 73.9908 7.00529 74.1118 7.16154C75.5499 9.02092 76.8999 6.948 78.2803 6.78654C78.7312 6.72925 79.0996 6.23967 79.5368 6.97925C79.7596 7.34904 80.1088 7.32821 80.1418 6.45842C80.4855 6.58862 80.8896 6.13029 81.1729 6.71362C81.5276 7.44279 82.0747 7.38029 82.3332 7.07821C83.1801 6.09904 84.0655 6.6355 84.9288 6.448C86.0892 6.198 87.2248 5.43237 88.4154 5.77092C88.9818 5.93237 89.5702 5.41154 90.1229 6.31779C90.5436 7.0105 90.8653 5.61987 91.3905 5.70842C92.4738 5.89592 93.5709 5.7605 94.6598 5.7605C95.0227 5.7605 95.3857 5.74487 95.7486 5.76571C96.0566 5.78654 96.1583 5.5105 96.1693 4.96362C96.1748 4.73446 96.3288 4.08862 96.4333 4.62508C96.887 6.90633 97.8521 5.30217 98.534 5.74487C100.071 4.2605 101.704 5.40112 103.285 5.12508C103.805 6.22404 104.303 4.97925 104.811 4.96883C106.34 4.92717 107.918 5.78133 109.409 4.46362C109.884 5.35946 110.506 4.90633 111.056 5.10425C111.54 5.28133 111.79 4.51571 112.18 4.3855C112.153 4.32821 112.15 4.22404 112.186 4.08341C112.224 3.94279 112.323 3.85946 112.392 3.75008C112.433 3.82821 112.51 3.94279 112.505 3.96883C112.461 4.11466 112.414 4.30217 112.337 4.36987C112.263 4.43758 112.208 4.43758 112.18 4.38029C112.222 4.573 112.238 4.8855 112.312 4.94279C113.156 5.61466 113.992 4.43758 114.9 4.98967C115.738 5.50529 116.572 4.54175 117.35 3.85946C117.526 3.70321 117.718 3.58341 117.839 3.74487C118.205 4.25008 118.397 5.3855 119.049 4.40633C119.527 3.69279 119.863 5.00529 120.333 5.12508C120.732 5.22404 120.916 4.16154 121.21 4.6355C121.573 5.21362 121.818 5.198 122.101 4.54175C122.475 3.68237 122.673 5.21362 123.121 4.76571C123.517 4.36987 124.045 5.15633 124.57 4.43758C124.941 3.93237 125.5 5.16675 126.082 4.43237C126.374 4.06258 126.949 4.58341 127.317 4.30737C127.718 4.0105 127.952 5.7605 128.321 4.47404C129.486 5.70321 130.762 4.65633 131.956 5.08862C132.682 5.35425 133.317 4.05737 133.927 4.62508C134.639 5.28654 135.335 5.08342 136.011 5.00008C136.869 4.89592 137.81 5.77612 138.599 4.39071C138.681 4.24487 138.929 4.28654 139.08 4.60946C139.275 5.02612 139.495 5.42717 139.743 5.72404C140.218 6.30737 140.908 6.11987 141.293 5.27612C141.381 5.08341 141.285 4.47404 141.472 4.43758C141.64 4.40633 141.684 4.85425 141.67 5.198C141.621 6.29175 141.659 6.35946 142.272 5.83862C142.852 5.35425 143.633 5.80217 144.285 5.07821C144.626 4.69279 144.917 5.39591 145.214 5.71883C145.357 5.87508 145.36 5.79696 145.707 4.65633C145.844 4.20841 146.243 4.16154 146.289 4.55737C146.435 5.7605 146.93 6.31779 147.337 7.08862C147.519 6.37508 147.686 5.70842 147.857 5.04175C148.552 6.53133 148.552 6.53133 150.373 6.14592C150.155 5.27612 149.751 5.90112 149.449 5.74487C149.174 5.60425 148.849 5.92196 148.486 5.24487C149.644 4.91675 150.672 4.53654 151.404 6.58862C151.863 7.87508 152.196 6.43237 152.589 6.41675C152.548 6.83862 152.691 6.98966 152.869 7.10946C153.196 7.33341 153.419 6.2605 153.554 6.59904C153.953 7.60946 154.109 6.21883 154.379 6.42717C154.635 6.61987 154.866 6.96362 155.127 7.08342C155.429 7.21883 155.674 6.073 156.111 7.04175C156.268 7.39071 156.793 7.17717 157.324 7.28133C157.326 7.32821 157.313 7.34904 157.326 7.41154C157.365 7.55217 157.461 7.64071 157.538 7.72404C157.555 7.73967 157.612 7.58862 157.489 7.31258C157.555 7.35425 157.557 7.30737 157.538 7.23967C158.283 6.07821 158.622 6.16154 159.13 7.57821C159.213 7.80737 159.152 8.46362 159.301 8.41154C159.584 8.31258 159.504 7.71883 159.501 7.30217C159.499 6.95321 159.512 6.58341 159.694 6.44279C159.917 6.27612 159.785 6.42717 159.793 6.67717C159.859 8.823 160.609 7.03654 160.948 7.448C161.41 8.00529 161.808 8.43758 162.399 7.83862C162.815 7.41675 163.172 8.08342 163.461 8.70842C163.541 8.8855 163.653 9.42196 163.838 8.90112C164.506 6.98446 164.833 8.71883 165.248 9.36987C165.746 10.1459 165.924 10.0938 166.034 8.65112C166.122 7.5105 166.485 7.86467 166.804 7.79696C167.101 7.74487 167.203 8.25008 167.363 8.54696C167.943 9.64071 168.649 9.93758 169.436 9.86987C169.84 9.83862 170.294 9.60946 170.574 10.4688C170.888 9.93237 171.259 9.86467 171.674 9.83342C172.815 9.75008 172.878 9.57821 172.986 7.27092C172.994 7.05737 173.027 6.84904 173.054 6.59383C173.365 6.33341 173.42 6.95841 173.555 7.19279C173.871 7.75008 173.357 7.78654 173.351 8.14592C173.335 8.94279 173.346 9.74487 173.346 10.547C173.087 10.6355 172.733 10.2553 172.623 11.047C172.598 11.2345 172.617 11.5105 172.672 11.6615C172.87 12.1928 172.917 11.5365 173.041 11.4584C173.142 11.3959 173.244 11.3074 173.346 11.2345C173.384 11.422 173.409 11.7553 173.467 11.7761C173.684 11.8699 173.72 11.5678 173.709 11.2345C173.808 11.1615 173.984 11.1147 173.995 11.0053C174.044 10.5938 173.885 10.5261 173.709 10.547C173.634 9.98446 174.363 9.50529 173.758 8.79696C173.717 8.74487 174.195 8.573 174.437 8.48446C174.6 9.65633 175.072 9.73967 175.617 9.93237C176.021 10.073 176.357 11.0938 176.761 9.94279C177.346 10.3334 177.916 10.6251 178.213 9.06779C178.504 9.96362 178.573 11.0313 179.172 11.2397C179.211 11.4272 179.235 11.7605 179.293 11.7813C179.51 11.8751 179.546 11.5678 179.535 11.2397C179.714 11.2397 179.904 11.323 180.063 11.2136C180.253 11.0886 180.261 10.7917 180.082 10.547C179.901 10.3022 179.967 9.823 180.091 9.90112C180.833 10.3595 180.39 8.27612 181.001 8.46362C181.212 8.52612 181.331 8.66675 181.353 9.0105C181.377 9.46883 181.383 9.90633 181.721 9.85946C181.284 10.6772 181.595 11.6459 181.542 12.5365C181.479 13.6147 181.837 14.3803 181.806 15.4949C182.466 14.2501 182.441 14.2709 182.125 12.9949C181.988 12.4428 182.068 11.9532 182.496 11.9011C182.81 11.8647 182.931 11.3542 182.56 11.2761C181.399 11.0365 182.81 10.2188 182.45 9.85946C182.7 9.87508 182.821 9.64592 182.813 9.17196C183.041 9.09383 183.118 9.36467 183.178 9.70842C183.225 10.0105 183.132 10.823 183.495 10.2553C184.264 9.04175 184.999 9.56258 185.738 10.2605C185.865 10.3803 185.975 10.5782 185.991 10.3751C186.156 8.21362 186.846 10.5053 187.185 9.85946C187.223 10.0522 187.248 10.3803 187.306 10.4063C187.523 10.4949 187.559 10.1928 187.548 9.85946C188.207 10.1667 187.828 11.1303 187.897 11.9324C187.809 11.9949 187.707 12.0313 187.63 12.1251C187.534 12.2397 187.556 12.4428 187.699 12.5261C187.746 12.5574 187.839 12.3386 187.91 12.0834C188.749 11.5053 187.891 9.823 188.48 9.20321C188.804 9.89592 188.548 10.7345 188.647 11.4792C188.689 11.7917 188.818 12.0365 188.988 11.6147C189.024 11.5261 190.682 10.7136 190.737 10.7345C190.875 10.7865 190.891 11.4897 191.122 11.0105C191.466 10.297 191.98 10.198 192.203 10.849C192.618 12.0678 191.787 11.7397 191.567 12.2084C191.056 13.3126 191.037 13.3074 190.462 12.2709C190.303 11.9792 190.173 11.9376 190.105 12.3178C190.047 12.6251 190.088 12.9949 190.094 13.3386C190.105 13.7553 189.984 13.9324 189.786 13.9897C189.585 14.0417 189.448 13.8803 189.365 13.5522C189.294 13.2709 189.505 12.5313 189.082 12.849C188.991 12.922 189.016 13.4636 188.936 13.7345C188.892 13.8751 188.741 13.9063 188.636 13.9897C188.598 13.797 188.573 13.4688 188.515 13.4428C188.298 13.3542 188.26 13.6563 188.273 13.9897C187.638 13.172 187.031 12.8126 186.486 14.2553C186.404 14.474 186.252 14.8542 186.12 14.3647C186.033 14.0417 185.631 14.0574 185.837 13.4167C185.903 13.2136 186.255 12.9063 185.947 12.7553C185.375 12.4688 185.026 12.0157 184.952 10.849C184.93 10.4897 184.644 10.4532 184.498 10.573C184.089 10.9167 184.479 11.1459 184.553 11.448C184.71 12.1095 184.88 12.7709 184.979 13.474C185.021 13.7657 184.856 14.0678 184.63 13.9949C184.592 13.8022 184.567 13.474 184.509 13.448C184.292 13.3595 184.256 13.6615 184.267 13.9949C183.907 13.9376 183.805 14.5782 183.924 14.8438C184.174 15.4115 184.902 15.9428 184.927 15.7032C185.117 14.0938 185.395 14.6667 185.879 15.2292C186.197 15.6042 186.805 15.7032 187.055 15.1615C187.592 13.9949 187.872 15.3438 188.271 15.3647C188.309 15.5522 188.334 15.8855 188.392 15.9063C188.609 16.0001 188.647 15.698 188.634 15.3647C189.181 16.0313 189.722 14.1147 190.267 15.3542C190.33 15.1876 190.437 15.0261 190.448 14.8542C190.534 13.1563 190.817 14.4324 191.196 14.8282C191.191 14.8751 191.18 14.9063 191.183 14.9949C191.196 15.3751 191.111 15.9636 191.397 15.9376C191.565 15.9167 191.719 15.3855 191.529 14.8751C191.823 14.7501 191.691 14.5886 191.526 14.6876C191.515 14.6928 191.504 14.6824 191.49 14.6824C191.279 13.6407 191.933 14.198 192.082 13.3855C192.131 13.1147 192.318 12.2397 192.709 13.047C193.083 13.8334 193.176 14.5574 192.786 15.349C192.678 15.5678 192.225 15.1042 192.392 15.8647C192.489 16.3022 192.72 16.8542 193.085 16.7397C193.316 16.6615 194.147 13.9688 194.05 13.5782C193.957 13.1928 193.701 13.4428 193.58 13.2813C193.25 12.8282 192.885 12.349 193.006 11.3803C193.03 11.172 193.036 10.948 193.085 10.7605C193.154 10.5001 193.256 10.5365 193.335 10.8386C193.847 12.7188 194.49 11.4167 195.084 11.0834C195.186 11.0209 195.244 10.698 195.345 10.6303C195.574 10.474 195.84 10.4636 195.909 11.0209C195.961 11.4532 195.928 11.9324 195.574 11.9376C195.315 11.9428 195.09 12.0365 195.381 12.6199C195.579 11.2605 196.129 14.8074 196.316 12.3699C196.368 11.724 196.88 10.7501 197.251 11.3126C197.817 12.1615 198.367 10.6095 198.892 11.6459C199.338 12.5209 200.08 11.4324 200.57 12.172C200.812 12.5365 200.869 12.3751 201.103 12.1824C201.642 11.7397 202.261 11.6511 202.789 12.2449C203.075 12.5626 203.229 12.6459 203.556 12.3542C204.293 11.6876 203.751 13.0417 203.927 13.3126C203.383 13.3699 203.619 14.1615 203.564 14.6876C203.212 14.8126 202.91 15.2345 202.94 15.849C202.962 16.2813 203.347 15.9845 203.564 16.0626C203.487 16.323 203.394 16.573 203.339 16.849C203.201 17.4949 202.984 18.198 203.605 18.8074C203.597 18.8126 203.581 18.8178 203.578 18.8282C203.509 19.2032 203.652 19.4428 203.817 19.4845C203.966 19.5209 204.12 19.3751 203.922 19.0626C204.202 18.8907 204.078 18.7865 203.902 18.8126C203.88 18.8178 203.856 18.8126 203.828 18.8126C203.57 18.0886 203.457 17.4428 203.988 17.4272C204.317 17.4167 204.678 17.6824 205.145 16.9167C204.513 16.7813 203.977 16.7032 203.564 16.0678C203.564 15.6095 203.564 15.1511 203.564 14.6928C204.109 14.6303 203.875 13.8386 203.927 13.3178C204.535 12.349 205.263 12.6095 205.956 12.6459C206.641 12.6824 207.411 12.1772 207.922 13.6251C208.17 14.3178 208.684 14.2032 208.907 13.9532C209.583 13.1667 210.174 14.2865 210.807 14.0209C211.106 13.8907 211.172 14.2865 211.222 14.8074C211.299 15.6095 211.587 15.547 211.873 15.1511C212.467 14.323 213.097 14.5574 213.707 14.9949C213.817 15.073 214.543 15.6303 213.694 16.1199C213.1 16.4636 213.564 17.724 213.378 18.448C213.237 18.9897 212.742 19.2605 213.518 19.573C214.315 19.9011 215.091 20.2553 215.918 20.2188C216.311 20.198 216.727 19.948 217.109 20.6095C217.315 20.9688 217.76 20.0001 218.008 20.8855C218.47 20.1251 218.822 21.9845 219.383 21.0157C219.779 20.3282 220.12 21.7865 220.648 21.6199C221.461 21.3647 222.275 21.547 222.938 22.7292C223.202 23.2032 223.257 22.1615 223.438 22.3542C223.642 22.573 223.782 22.9897 223.964 23.297C224.046 23.4376 224.225 23.6511 224.241 23.6199C224.879 22.3334 225.512 23.8542 226.128 23.6199C226.834 23.349 227.2 25.1042 228 24.1251C227.794 25.323 227.274 25.5261 227.236 26.3803C227.266 26.3282 227.318 26.323 227.395 26.3959C227.45 26.4845 227.494 26.672 227.549 26.8022ZM186.712 12.6303C186.855 12.6459 187.011 12.4272 187.16 12.3178C186.989 12.0105 186.824 11.7136 186.646 11.3907C186.588 11.4584 186.453 11.5365 186.445 11.6511C186.409 12.0834 186.39 12.5886 186.712 12.6303ZM81.2059 4.05737C81.2471 4.1355 81.2883 4.20841 81.3351 4.30217C81.4121 4.22404 81.4918 4.14071 81.5716 4.05737C81.5276 3.97925 81.4808 3.83341 81.4506 3.84383C81.3653 3.88029 81.2883 3.97925 81.2059 4.05737ZM71.0652 3.95841C71.1065 4.09904 71.1505 4.25008 71.1945 4.40112C71.2357 4.323 71.3127 4.22925 71.31 4.17196C71.288 4.0105 71.2357 3.86467 71.1945 3.71362C71.1532 3.78654 71.1147 3.86467 71.0652 3.95841ZM7.24098 17.2188C7.19699 17.0782 7.15299 16.9272 7.11175 16.7761C7.06776 16.8595 6.99077 16.948 6.99627 17.0053C7.01551 17.1667 7.06776 17.3126 7.11175 17.4636C7.15025 17.3907 7.19149 17.3126 7.24098 17.2188ZM10.1583 19.974C10.0099 19.4115 9.82838 18.922 9.46818 18.8542C9.37194 18.8386 9.27021 19.0001 9.17122 19.073C9.30045 19.6563 9.48468 20.1407 9.84763 20.198C9.94386 20.2188 10.0483 20.0626 10.1583 19.974ZM10.9337 19.1876C10.8925 19.1095 10.843 18.9636 10.8127 18.9688C10.7275 19.0053 10.6505 19.1095 10.5708 19.1876C10.612 19.2657 10.6505 19.3386 10.7 19.4324C10.7742 19.349 10.854 19.2657 10.9337 19.1876ZM19.2403 17.0053C19.2458 16.948 19.1661 16.8542 19.1249 16.7761C19.0809 16.9272 19.0369 17.0782 18.9956 17.2188C19.0451 17.3126 19.0864 17.3907 19.1249 17.4636C19.1661 17.3126 19.2211 17.1667 19.2403 17.0053ZM30.9592 13.6824C30.918 13.6042 30.8685 13.4584 30.841 13.4688C30.7558 13.5053 30.676 13.6042 30.5963 13.6824C30.6375 13.7605 30.676 13.8334 30.7255 13.9272C30.7998 13.849 30.8822 13.7657 30.9592 13.6824ZM32.3643 13.7709C32.3203 13.6355 32.2763 13.3699 32.2186 13.3595C32.0591 13.3386 31.8501 13.1876 31.7539 13.5834C31.7319 13.6772 31.8309 13.9949 31.8804 14.0053C32.0453 14.0261 32.2406 14.172 32.3643 13.7709ZM34.6025 13.0001C34.5612 12.922 34.52 12.8438 34.4733 12.7553C34.3963 12.8334 34.3165 12.9167 34.2395 13.0001C34.2808 13.0782 34.3275 13.224 34.3578 13.2136C34.4403 13.1772 34.52 13.073 34.6025 13.0001ZM36.057 19.8751C36.0158 19.797 35.9773 19.7188 35.9278 19.6303C35.8536 19.7084 35.7711 19.7917 35.6941 19.8751C35.7353 19.9532 35.7848 20.099 35.8123 20.0886C35.8976 20.0522 35.9773 19.948 36.057 19.8751ZM48.8015 17.4532C48.7603 17.2657 48.7301 16.9376 48.6751 16.9167C48.4606 16.849 48.4111 17.1511 48.4386 17.4792C48.4578 17.6772 48.5046 18.0053 48.5623 18.0209C48.7768 18.0886 48.8153 17.7865 48.8015 17.4532ZM49.8931 10.2449C49.8519 10.1667 49.8134 10.0938 49.7639 10.0001C49.6869 10.0782 49.6072 10.1615 49.5302 10.2449C49.5714 10.323 49.6209 10.4688 49.6484 10.4584C49.7337 10.422 49.8134 10.323 49.8931 10.2449ZM53.8169 9.67196C53.8691 8.96362 53.5336 9.25529 53.3494 9.22404C53.1872 9.20321 52.915 9.05737 52.8847 9.44279C52.8297 10.1563 53.1734 9.80737 53.3439 9.90112C53.5171 9.85946 53.7921 10.0574 53.8169 9.67196ZM55.3539 9.55737C55.2604 9.44279 55.1724 9.32821 55.0349 9.15633C54.914 9.27612 54.7682 9.41675 54.6252 9.55737C54.7187 9.67196 54.815 9.89592 54.9002 9.88029C55.0569 9.84904 55.2054 9.67196 55.3539 9.55737ZM60.1822 8.08342C59.3766 7.52612 58.6424 8.38029 58.1063 7.27092C58.098 7.25529 57.7268 7.70841 57.6278 8.05737C57.5124 8.46883 57.7873 8.39071 57.8918 8.54696C58.6947 9.75529 59.3793 8.96883 60.1822 8.08342ZM61.1116 8.02612C60.9824 7.80737 60.8669 7.60946 60.7679 7.39592C60.5507 6.93758 60.4847 7.41675 60.4654 7.62508C60.4215 8.04175 60.4462 8.51571 60.7597 8.5105C60.8531 8.50529 60.9576 8.40633 61.1116 8.02612ZM61.1831 7.84383C61.2436 7.67196 61.3123 7.46883 61.3893 7.20842C61.3206 7.31258 61.2188 7.39592 61.1858 7.54175C61.1501 7.68758 61.1529 7.78654 61.1831 7.84383ZM61.5048 7.42717C61.5103 7.40112 61.4553 7.35425 61.3261 7.82821C61.3316 7.82821 61.3316 7.83341 61.3398 7.82821C61.4113 7.75529 61.4608 7.573 61.5048 7.42717ZM61.909 8.52612C61.8155 8.58862 61.7138 8.62508 61.6285 8.72404C61.535 8.83862 61.557 9.04696 61.6973 9.13029C61.7468 9.15633 61.8375 8.94279 61.909 8.52612ZM62.8961 8.25008C62.9869 7.86987 62.6102 7.10425 62.4452 6.5105C62.6816 7.5105 62.0355 7.66154 61.9282 8.53133C62.2719 8.45321 62.7559 8.84383 62.8961 8.25008ZM66.2617 7.64071C66.2561 7.39071 66.1489 6.95841 65.9454 7.43237C65.907 7.52091 65.8602 7.67196 65.819 7.67196C65.4148 7.67196 65.3378 6.65633 65.0436 6.59383C64.6641 6.52091 64.9693 8.17717 64.2984 7.86987C64.0372 7.75008 63.7045 7.64071 63.0913 8.52612C64.3067 8.52612 65.2003 8.54696 66.0967 8.48967C66.1627 8.48446 66.2699 7.93237 66.2617 7.64071ZM66.6411 4.05737C66.6823 4.1355 66.7236 4.20841 66.7703 4.30217C66.8473 4.22404 66.9271 4.14071 67.0068 4.05737C66.9628 3.97925 66.9161 3.83341 66.8858 3.84383C66.8006 3.88029 66.7236 3.97925 66.6411 4.05737ZM76.0586 14.9584C76.0091 14.8699 75.9678 14.7865 75.9293 14.7136C75.8881 14.8699 75.8331 15.0157 75.8138 15.1772C75.8056 15.2292 75.8881 15.3282 75.9293 15.4011C75.9706 15.2553 76.0146 15.1042 76.0586 14.9584ZM110.269 12.4272C110.25 12.2657 110.195 12.1199 110.154 11.9636C110.113 12.047 110.074 12.1199 110.025 12.2084C110.066 12.3542 110.11 12.5053 110.154 12.6511C110.195 12.573 110.275 12.4845 110.269 12.4272ZM111.064 9.55737C111.023 9.47925 110.973 9.33342 110.943 9.33862C110.858 9.38029 110.781 9.47925 110.701 9.55737C110.742 9.6355 110.781 9.70841 110.83 9.80217C110.907 9.72404 110.984 9.64071 111.064 9.55737ZM112.521 13.0001C112.442 12.922 112.362 12.8178 112.277 12.7813C112.249 12.7657 112.2 12.922 112.158 13.0001C112.235 13.0782 112.315 13.1615 112.392 13.2397C112.442 13.1511 112.48 13.073 112.521 13.0001ZM114.006 11.1928C113.915 10.9376 113.855 10.7657 113.794 10.5886C113.734 10.8751 113.64 11.1511 113.624 11.448C113.613 11.6095 113.734 11.7917 113.794 11.9636C113.869 11.6928 113.943 11.422 114.006 11.1928ZM115.799 11.474C115.804 11.5157 115.791 11.5261 115.802 11.5782C115.84 11.7188 115.936 11.8074 116.016 11.8907C116.03 11.9011 116.055 11.7865 115.799 11.474ZM116.132 11.6772C116.077 11.5417 116.033 11.3542 115.956 11.2865C115.881 11.2188 115.824 11.2188 115.796 11.2761C115.76 11.099 115.744 10.9063 115.692 10.7501C115.628 10.573 115.521 10.6147 115.477 10.8803C115.466 10.9428 115.527 11.0522 115.736 11.2813C115.758 11.2813 115.774 11.2813 115.793 11.2813C115.788 11.2917 115.799 11.3282 115.796 11.3438C115.887 11.4376 115.994 11.5417 116.132 11.6772ZM116.822 10.1303C116.83 10.073 116.747 9.97404 116.706 9.90112C116.662 10.0522 116.618 10.2032 116.577 10.3438C116.627 10.4376 116.668 10.5157 116.706 10.5886C116.747 10.4376 116.802 10.2917 116.822 10.1303ZM118.658 11.724C118.617 11.5782 118.573 11.4272 118.529 11.2813C118.488 11.3595 118.408 11.448 118.414 11.5053C118.433 11.6667 118.488 11.8126 118.529 11.9636C118.57 11.8855 118.609 11.8126 118.658 11.724ZM122.351 11.9532C122.31 11.7657 122.28 11.4324 122.225 11.4115C122.013 11.3438 121.961 11.6459 121.991 11.974C122.008 12.172 122.057 12.5001 122.112 12.5209C122.326 12.5886 122.365 12.2865 122.351 11.9532ZM128.125 12.4063C128.084 12.2657 128.04 12.1147 127.996 11.9636C127.955 12.047 127.875 12.1355 127.881 12.1928C127.9 12.3542 127.955 12.5001 127.996 12.6511C128.037 12.573 128.076 12.5001 128.125 12.4063ZM143.105 10.9324C143.064 10.8542 143.026 10.7813 142.976 10.6928C142.902 10.7709 142.822 10.849 142.742 10.9324C142.784 11.0105 142.833 11.1615 142.863 11.1511C142.949 11.1147 143.026 11.0105 143.105 10.9324ZM145.239 11.5261C145.19 11.4324 145.148 11.3542 145.11 11.2813C145.069 11.4324 145.016 11.5782 144.994 11.7397C144.989 11.797 145.069 11.8855 145.11 11.9636C145.151 11.8126 145.195 11.6667 145.239 11.5261ZM150.7 7.59383C150.659 7.45321 150.615 7.30216 150.571 7.15112C150.529 7.23446 150.452 7.323 150.458 7.38029C150.477 7.54175 150.529 7.68758 150.571 7.83862C150.609 7.7605 150.653 7.68758 150.7 7.59383ZM155.85 8.18237C155.809 8.10425 155.759 7.95321 155.729 7.96362C155.644 8.00008 155.567 8.10425 155.487 8.18237C155.528 8.2605 155.567 8.33341 155.616 8.42717C155.69 8.34383 155.773 8.26571 155.85 8.18237ZM158.399 8.18237C158.358 8.10425 158.319 8.02612 158.27 7.93758C158.195 8.01571 158.116 8.09904 158.036 8.18237C158.077 8.2605 158.127 8.40633 158.157 8.39592C158.239 8.35946 158.316 8.2605 158.399 8.18237ZM163.425 12.8907C163.414 12.7865 163.238 12.7292 163.139 12.6511C162.96 12.6251 162.804 12.698 162.839 13.099C162.85 13.2032 163.024 13.297 163.128 13.3282C163.301 13.3907 163.461 13.2917 163.425 12.8907ZM166.705 14.2553C166.714 14.198 166.634 14.1095 166.593 14.0313C166.549 14.1772 166.505 14.3282 166.463 14.4688C166.51 14.5626 166.551 14.6407 166.593 14.7136C166.634 14.5626 166.686 14.4167 166.705 14.2553ZM169.254 12.1928C169.263 12.1355 169.18 12.047 169.139 11.9636C169.095 12.1147 169.051 12.2657 169.01 12.4063C169.059 12.5001 169.1 12.5782 169.139 12.6511C169.18 12.5001 169.235 12.3542 169.254 12.1928ZM171.869 15.0626C171.828 14.9845 171.778 14.8334 171.751 14.8438C171.666 14.8803 171.586 14.9845 171.506 15.0626C171.547 15.1407 171.586 15.2136 171.635 15.3074C171.715 15.224 171.792 15.1459 171.869 15.0626ZM174.352 14.2553C174.36 14.198 174.278 14.1095 174.237 14.0313C174.193 14.1772 174.149 14.3282 174.107 14.4688C174.157 14.5626 174.198 14.6407 174.237 14.7136C174.278 14.5626 174.333 14.4167 174.352 14.2553ZM174.732 12.4063C174.69 12.2657 174.646 12.1147 174.602 11.9636C174.561 12.047 174.484 12.1355 174.49 12.1928C174.509 12.3542 174.561 12.5001 174.602 12.6511C174.641 12.573 174.685 12.5001 174.732 12.4063ZM175.402 11.9636C175.438 11.9636 175.477 11.9636 175.512 11.9636C175.479 11.7865 175.457 11.5938 175.408 11.4376C175.347 11.2553 175.237 11.297 175.193 11.5678C175.182 11.6199 175.237 11.724 175.402 11.9636ZM175.507 12.3282C175.532 12.6928 175.449 13.1303 175.727 13.2553C175.752 13.2657 175.785 13.0001 175.507 12.3282ZM175.903 12.672C175.84 12.4636 175.787 12.1407 175.675 11.9845C175.565 11.8386 175.504 11.9115 175.501 12.1095C175.603 12.2553 175.73 12.4324 175.903 12.672ZM176.31 11.5001C176.329 11.6615 176.384 11.8074 176.425 11.9636C176.467 11.8855 176.544 11.7917 176.538 11.7345C176.519 11.573 176.467 11.4272 176.425 11.2761C176.384 11.3542 176.302 11.448 176.31 11.5001ZM176.604 13.6824C176.524 13.6042 176.447 13.5053 176.362 13.4688C176.332 13.4532 176.282 13.6042 176.241 13.6824C176.318 13.7657 176.401 13.849 176.475 13.9272C176.524 13.8334 176.563 13.7605 176.604 13.6824ZM180.234 13.8699C180.143 13.3178 179.849 12.5678 179.571 12.7292C179.147 12.974 178.804 13.3022 178.427 12.6563C178.427 12.9167 178.394 13.3074 178.405 13.5105C178.251 13.4324 178.105 13.3542 177.918 13.2605C178.004 13.1042 178.416 12.6459 178.383 12.3438C178.323 11.7292 177.916 11.9845 177.649 11.9792C177.327 11.9688 177.302 12.4532 177.344 12.8803C177.366 13.099 177.459 13.2761 178.408 13.5157C178.413 13.573 178.422 13.6199 178.435 13.6355C178.938 14.0522 179.461 14.4167 179.992 14.6876C180.126 14.7553 180.239 14.448 178.424 13.5157C178.839 13.6147 179.409 13.7292 180.234 13.8699ZM181.003 12.7345C180.94 12.5053 180.866 12.2345 180.792 11.9636C180.728 12.1355 180.613 12.323 180.621 12.4845C180.638 12.7761 180.728 13.0522 180.792 13.3386C180.852 13.1667 180.913 12.9949 181.003 12.7345ZM183.874 12.9688C183.885 12.6667 183.962 12.2917 183.75 12.0626C183.679 12.1459 183.539 12.2292 183.533 12.3282C183.522 12.6355 183.44 13.0313 183.651 13.2084C183.701 13.2553 183.871 13.0678 183.874 12.9688ZM189.349 17.1251C189.307 17.047 189.269 16.974 189.219 16.8803C189.142 16.9584 189.063 17.0417 188.986 17.1251C189.027 17.2032 189.076 17.349 189.104 17.3386C189.189 17.297 189.269 17.198 189.349 17.1251ZM196.992 15.9167C196.946 15.3074 196.676 15.4532 196.451 15.3907C196.011 15.2657 195.846 15.9324 195.315 16.7813C195.895 16.7813 196.176 16.7501 196.456 16.7917C196.806 16.8386 197.05 16.6876 196.992 15.9167ZM200.625 15.2032C200.633 15.0678 200.501 14.9011 200.435 14.7501C200.383 14.9324 200.339 15.1355 200.27 15.297C199.775 16.448 199.627 16.4115 199.176 15.1511C199.027 14.7397 198.821 14.3959 198.59 13.922C198.288 15.3647 198.543 16.0886 199.104 16.823C199.555 17.4115 200.111 16.573 200.465 17.4532C200.823 16.7813 200.573 15.948 200.625 15.2032ZM201.582 17.4376C201.37 17.3334 201.131 17.2188 200.825 17.0886C201.109 17.3386 201.356 17.4115 201.582 17.4376ZM201.912 13.3386C201.953 13.2605 202.03 13.1667 202.027 13.1147C202.008 12.9532 201.953 12.8022 201.912 12.6511C201.87 12.7292 201.791 12.823 201.796 12.8803C201.815 13.0365 201.87 13.1876 201.912 13.3386ZM202.676 18.0782C202.681 18.0834 202.692 18.0626 202.599 17.9949C202.624 18.0209 202.651 18.0522 202.676 18.0782ZM202.791 17.8647C202.736 17.7345 202.692 17.5417 202.615 17.4792C202.541 17.4115 202.483 17.4115 202.459 17.4636C202.412 16.8178 202.566 16.1199 202.28 15.3595C201.986 16.0626 201.656 16.6407 202.374 17.4584C202.401 17.4636 202.428 17.4584 202.456 17.4636C202.448 17.4792 202.459 17.5261 202.459 17.547C202.555 17.6511 202.657 17.7553 202.791 17.8647ZM205.437 14.9428C205.456 15.1042 205.511 15.2501 205.552 15.4011C205.593 15.323 205.67 15.2292 205.665 15.1772C205.646 15.0157 205.593 14.8699 205.552 14.7136C205.511 14.7917 205.431 14.8855 205.437 14.9428ZM205.764 17.3803C205.673 17.1303 205.613 16.9532 205.552 16.7761C205.492 17.0626 205.398 17.3386 205.382 17.6355C205.371 17.797 205.492 17.9792 205.552 18.1563C205.624 17.8855 205.701 17.6147 205.764 17.3803ZM208.94 17.6928C208.516 17.9949 208.005 16.797 207.606 18.0053C208.071 18.2292 208.513 18.2761 208.94 17.6928ZM212.313 17.3178C212.201 17.1355 212.206 16.4688 211.983 17.0261C211.761 17.573 211.472 17.4792 211.192 17.4532C210.845 17.4324 210.807 17.8699 210.837 18.323C210.875 18.9272 211.142 18.823 211.37 18.8438C211.956 18.9011 212.14 18.1407 212.313 17.3178ZM213.045 16.1772C212.982 15.9428 212.91 15.672 212.833 15.4011C212.773 15.5782 212.657 15.7605 212.663 15.922C212.679 16.2188 212.773 16.4949 212.833 16.7761C212.894 16.6042 212.957 16.4272 213.045 16.1772ZM219.938 23.1615C219.944 23.2032 219.927 23.2188 219.941 23.2657C219.977 23.4063 220.076 23.5001 220.153 23.5782C220.164 23.5886 220.188 23.4792 219.938 23.1615ZM220.268 23.3699C220.21 23.2345 220.166 23.047 220.092 22.9845C220.015 22.9115 219.96 22.9115 219.93 22.9688C219.897 22.7917 219.88 22.599 219.825 22.4428C219.765 22.2657 219.655 22.3074 219.611 22.573C219.603 22.6355 219.663 22.7449 219.872 22.974C219.891 22.974 219.908 22.974 219.927 22.974C219.924 22.9845 219.933 23.0209 219.93 23.0365C220.021 23.1251 220.131 23.2345 220.268 23.3699ZM219.933 22.9636C219.933 22.9688 219.933 22.9688 219.933 22.9636V22.9636ZM126.363 11.7345C126.338 11.8855 126.363 11.9532 126.418 11.9636C126.429 11.8647 126.44 11.7657 126.465 11.6511C126.421 11.672 126.396 11.7084 126.363 11.7345ZM70.3366 6.02092C70.3778 6.16154 70.4218 6.31779 70.4658 6.46362C70.5071 6.3855 70.5841 6.29175 70.5786 6.23967C70.5593 6.07821 70.5071 5.92716 70.4658 5.77612C70.4273 5.84904 70.3833 5.92717 70.3366 6.02092ZM85.575 4.40112C85.8087 5.61987 86.2487 5.17196 86.6226 4.78133C86.7573 4.64071 87.0928 4.36987 86.9278 3.92716C86.8398 3.69279 86.5181 3.77091 86.3037 3.70841C86.2734 4.73967 85.8527 4.29696 85.575 4.40112ZM75.5334 5.77092C75.5114 5.59383 75.4976 5.3855 75.4894 5.11987C75.4509 5.20841 75.4179 5.25529 75.3822 5.323C75.3547 5.54175 75.3052 5.78654 75.5334 5.77092ZM157.524 7.27612C157.513 7.23446 157.494 7.19279 157.467 7.16154C157.343 7.05217 157.299 7.15112 157.31 7.323C157.365 7.33341 157.42 7.33341 157.475 7.34904C157.491 7.323 157.505 7.30737 157.524 7.27612ZM23.7635 22.3959C23.7387 22.4792 23.7085 22.5626 23.681 22.6563C23.5957 22.9428 23.6755 23.0053 23.8487 22.9845C23.8487 22.9845 23.8487 22.9845 23.8515 22.9845C23.8542 22.7709 23.8735 22.5001 23.9257 22.1355C23.8597 22.2292 23.8185 22.3074 23.7635 22.3959ZM46.7558 5.78654C46.6706 5.71883 46.6266 5.76571 46.6156 5.87508C46.6706 5.91154 46.7173 5.96362 46.7833 5.97925C46.7641 5.89592 46.7668 5.84904 46.7558 5.78654ZM74.0761 3.03654C73.9881 2.96362 73.9414 3.00008 73.9249 3.09383C73.9798 3.1355 74.0293 3.18758 74.0926 3.22404C74.0788 3.15112 74.0843 3.09904 74.0761 3.03654ZM184.616 14.0313C184.495 14.0313 184.372 14.0313 184.253 14.0313C184.292 14.2188 184.317 14.5522 184.374 14.573C184.592 14.6667 184.627 14.3595 184.616 14.0313ZM121.139 13.4688C121.053 13.5053 120.976 13.6042 120.897 13.6824C120.938 13.7605 120.976 13.8334 121.026 13.9272C121.1 13.849 121.18 13.7657 121.26 13.6824C121.221 13.6042 121.169 13.4584 121.139 13.4688ZM85.2121 15.0626C85.2533 15.1407 85.3028 15.2865 85.333 15.2761C85.4183 15.2397 85.4953 15.1407 85.575 15.0626C85.5338 14.9845 85.4953 14.9063 85.4458 14.8178C85.3715 14.8959 85.2918 14.9792 85.2121 15.0626ZM134.846 13.3595C134.694 13.3751 134.549 13.5261 134.4 13.6251C134.461 13.948 134.582 14.073 134.774 14.0209C134.859 13.8699 135.14 14.3542 135.087 13.7136C135.074 13.5626 134.925 13.3595 134.846 13.3595ZM44.8641 20.6772C44.8558 20.7345 44.9356 20.8334 44.9768 20.9063C45.0208 20.7553 45.0648 20.6042 45.106 20.4636C45.0593 20.3699 45.0181 20.2917 44.9768 20.2188C44.9356 20.3699 44.8833 20.5157 44.8641 20.6772ZM133.281 14.0261C133.102 13.9949 132.946 14.073 132.981 14.474C132.99 14.5834 133.163 14.672 133.27 14.7084C133.44 14.7605 133.603 14.672 133.567 14.2657C133.559 14.1563 133.38 14.1095 133.281 14.0261ZM130.735 14.349C130.746 14.4636 130.881 14.5365 130.925 14.5834C131.109 14.2605 131.276 13.9688 131.447 13.6772C131.296 13.5626 131.139 13.3438 130.996 13.3647C130.683 13.4167 130.699 13.922 130.735 14.349ZM129.662 13.3438C129.64 13.8699 129.335 13.9949 129.305 14.3542C129.283 14.6042 129.508 14.7501 129.687 14.7188C130.001 14.672 130.003 14.2553 129.998 13.8178C129.929 13.5157 129.668 13.2397 129.662 13.3438ZM44.0419 20.9011C43.9292 20.9167 43.7285 20.8438 43.7175 20.9115C43.646 21.2813 43.7917 21.5313 43.9567 21.573C44.1024 21.6095 44.2592 21.4636 44.4159 21.3907C44.3417 20.9792 44.2207 20.8699 44.0419 20.9011ZM5.60221 18.849C5.87442 18.7917 6.20712 18.974 6.20437 18.0782C6.25112 17.1147 5.80568 17.0001 5.47572 16.8074C5.17602 16.6303 5.10728 17.1147 5.10728 17.599C5.10728 18.2501 5.03853 18.9688 5.60221 18.849ZM88.4291 3.31779C88.5501 3.60425 88.0304 3.74487 88.2311 4.22925C88.3576 4.53654 88.6738 5.00008 88.7096 4.94279C89.3887 3.86466 90.4473 4.43758 91.0358 3.02091C90.4143 3.07821 89.9497 2.54696 89.5812 1.64591C89.463 1.64591 89.2815 1.74487 89.2348 1.63029C88.7811 0.588623 88.3549 1.6355 87.9342 1.72404C87.7115 1.76571 87.6647 2.46362 87.8517 2.80216C87.9947 3.06779 88.3081 3.03654 88.4291 3.31779ZM91.0358 3.02612C90.9148 2.55216 90.7388 2.09904 90.6838 1.59383C90.5683 0.536539 90.835 8.1718e-05 91.3437 0.296956C91.9844 0.666748 92.5975 1.19279 93.2217 1.65112C93.2959 2.23966 93.9009 3.13029 92.977 3.16675C92.9357 3.16675 92.8972 3.51571 92.8588 3.70841C92.8863 3.65633 92.9412 3.65112 93.0155 3.72404C93.0897 3.79175 93.1337 3.97925 93.1915 4.10946C93.1502 4.18758 93.0897 4.33341 93.0787 4.323C92.999 4.23967 92.9 4.15112 92.867 4.0105C92.8285 3.86466 92.8285 3.76571 92.8588 3.70841C92.4986 3.66154 92.3666 4.68237 91.9431 4.40633C91.7892 4.30217 91.5087 4.55217 91.4812 4.16154C91.4372 3.46883 91.7892 3.84383 91.9486 3.68758C92.1549 3.48967 92.1109 3.10946 91.9239 3.04696C91.6379 2.95321 91.3355 3.02612 91.0358 3.02612ZM91.4042 1.30737C91.3217 1.22404 91.2447 1.12508 91.1595 1.08862C91.1292 1.073 91.0798 1.22404 91.0385 1.30737C91.1182 1.3855 91.198 1.46883 91.275 1.54696C91.3217 1.45842 91.3602 1.3855 91.4042 1.30737ZM25.8614 24.0001C25.9549 24.1147 26.0512 24.3334 26.1364 24.323C26.2931 24.2917 26.4389 24.1147 26.5901 24.0001C26.4966 23.8855 26.4086 23.7709 26.2711 23.599C26.1501 23.7188 26.0044 23.8595 25.8614 24.0001ZM39.3868 21.8334C39.4281 21.9792 39.4721 22.1303 39.5161 22.2761C39.5573 22.198 39.637 22.1095 39.6315 22.0522C39.6123 21.8907 39.5573 21.7449 39.5161 21.5886C39.4748 21.672 39.4363 21.7449 39.3868 21.8334ZM4.69208 18.599C4.65084 18.4532 4.60684 18.3022 4.56285 18.1563C4.52161 18.2345 4.44187 18.3282 4.44737 18.3803C4.46661 18.5417 4.52161 18.6876 4.56285 18.8438C4.60134 18.7657 4.64259 18.6876 4.69208 18.599ZM22.3804 24.3542C22.3034 24.2865 22.2484 24.2865 22.2182 24.3386C22.1852 24.1667 22.1687 23.974 22.1137 23.8178C22.0532 23.6355 21.9432 23.6772 21.8992 23.9428C21.8855 24.0365 21.9982 24.2136 22.056 24.3438C22.1082 24.3438 22.1632 24.3438 22.2154 24.3438C22.1907 24.4011 22.1879 24.5053 22.2237 24.6459C22.2594 24.7813 22.3584 24.8751 22.4354 24.9584C22.4492 24.9688 22.5096 24.823 22.5509 24.7449C22.4959 24.6095 22.4546 24.422 22.3804 24.3542ZM120.891 12.0522C120.844 12.0261 120.809 11.9845 120.754 11.9636C120.811 12.0626 120.855 12.0834 120.891 12.0522ZM140.834 12.6407C141.079 12.6876 141.313 12.6095 141.285 11.9636C141.04 11.9636 140.798 11.9636 140.556 11.9636C140.518 12.3855 140.65 12.599 140.834 12.6407ZM156.337 15.2605C156.554 15.349 156.59 15.047 156.579 14.7136C156.458 14.7136 156.334 14.7136 156.216 14.7136C156.254 14.9063 156.276 15.2345 156.337 15.2605ZM170.566 18.0678C170.615 18.0938 170.706 17.8803 170.778 17.7709C170.778 17.672 170.778 17.573 170.778 17.4636C170.681 17.5313 170.58 17.5678 170.497 17.6615C170.404 17.7761 170.426 17.9845 170.566 18.0678ZM138.09 14.9115C137.997 15.0261 138.019 15.2345 138.159 15.3178C138.208 15.3438 138.302 15.1303 138.371 15.0261C138.371 14.922 138.371 14.823 138.371 14.7136C138.28 14.7813 138.175 14.8178 138.09 14.9115ZM96.2875 14.6303C96.337 14.6563 96.4305 14.4376 96.502 14.3334C96.502 14.2345 96.502 14.1303 96.502 14.0261C96.4058 14.0886 96.304 14.1251 96.2215 14.224C96.1226 14.3386 96.1473 14.547 96.2875 14.6303ZM163.376 16.2188C163.29 16.2605 163.213 16.3595 163.131 16.4376C163.175 16.5157 163.213 16.5886 163.26 16.6824C163.337 16.6042 163.417 16.5209 163.497 16.4376C163.455 16.3595 163.409 16.2084 163.376 16.2188ZM135.761 13.0782C135.582 13.4584 135.453 14.0522 135.098 14.0261C135.098 14.1407 135.074 14.2865 135.101 14.3595C135.481 15.3751 135.855 13.8907 136.075 14.2449C136.394 14.7605 136.905 14.5834 137.097 15.3959C137.227 15.1563 137.342 14.8907 137.485 14.6824C137.713 14.349 137.469 14.198 137.436 13.948C137.315 13.047 136.55 13.7813 136.553 12.6459C136.27 12.6615 135.998 12.5678 135.761 13.0782ZM139.226 12.5105C139.443 12.599 139.479 12.297 139.465 11.9636C139.344 11.9636 139.223 11.9636 139.102 11.9636C139.143 12.1563 139.165 12.4845 139.226 12.5105ZM141.049 13.474C140.994 13.4949 140.944 13.823 140.928 14.0209C140.897 14.349 140.947 14.6511 141.161 14.5834C141.216 14.5626 141.247 14.2345 141.288 14.0417C141.302 13.7084 141.26 13.4063 141.049 13.474ZM158.764 15.7449C158.806 15.823 158.852 15.974 158.883 15.9636C158.968 15.9272 159.045 15.823 159.127 15.7449C159.086 15.6667 159.045 15.5938 158.998 15.5053C158.921 15.5834 158.841 15.6615 158.764 15.7449ZM142.242 13.4376C142.171 13.5209 142.028 13.6042 142.025 13.7084C142.011 14.0105 141.931 14.4063 142.14 14.5886C142.19 14.6303 142.36 14.4376 142.366 14.349C142.374 14.0417 142.456 13.672 142.242 13.4376ZM138.365 14.3907C138.354 14.7188 138.406 14.8959 138.536 14.698C138.733 14.3907 138.885 13.9688 139.055 13.5938C138.959 13.5105 138.863 13.4272 138.766 13.3334C138.351 13.3074 138.382 13.8438 138.365 14.3907ZM146.754 14.0261C146.575 13.9949 146.416 14.073 146.454 14.474C146.463 14.5834 146.636 14.672 146.74 14.7084C146.914 14.7605 147.076 14.672 147.037 14.2657C147.032 14.1563 146.853 14.1095 146.754 14.0261ZM150.221 13.3595C150.144 13.3855 150.032 13.6667 150.037 13.8126C150.045 14.099 150.125 14.3751 150.177 14.6563C150.348 14.5417 150.417 14.3126 150.386 13.948C150.307 13.797 150.562 13.2553 150.221 13.3595Z" fill="#A52428"/>
</g>
</svg>
