<svg width="72" height="60" viewBox="0 0 72 60" fill="none" xmlns="http://www.w3.org/2000/svg">
<g clip-path="url(#clip0_53402_159)">
<path d="M42.25 39.4922L48.8711 32.8711L50.6289 34.6289L42.25 43.0078L37.6211 38.3789L39.3789 36.6211L42.25 39.4922ZM56 25V50H31V34.7461C30.2057 34.9154 29.3724 35 28.5 35C26.7682 35 25.1471 34.6745 23.6367 34.0234C22.1263 33.3724 20.7982 32.4805 19.6523 31.3477C18.5065 30.2148 17.6146 28.8932 16.9766 27.3828C16.3385 25.8724 16.013 24.2448 16 22.5C16 20.7682 16.3255 19.1471 16.9766 17.6367C17.6276 16.1263 18.5195 14.7982 19.6523 13.6523C20.7852 12.5065 22.1068 11.6146 23.6172 10.9766C25.1276 10.3385 26.7552 10.013 28.5 10C30.2318 10 31.8529 10.3255 33.3633 10.9766C34.8737 11.6276 36.2018 12.5195 37.3477 13.6523C38.4935 14.7852 39.3854 16.1068 40.0234 17.6172C40.6615 19.1276 40.987 20.7552 41 22.5C41 23.3724 40.9154 24.2057 40.7461 25H56ZM18.5 22.5C18.5 23.8802 18.7604 25.1758 19.2812 26.3867C19.8021 27.5977 20.5182 28.6523 21.4297 29.5508C22.3411 30.4492 23.4023 31.1654 24.6133 31.6992C25.8242 32.2331 27.1198 32.5 28.5 32.5C29.8802 32.5 31.1758 32.2396 32.3867 31.7188C33.5977 31.1979 34.6523 30.4818 35.5508 29.5703C36.4492 28.6589 37.1654 27.5977 37.6992 26.3867C38.2331 25.1758 38.5 23.8802 38.5 22.5C38.5 21.1198 38.2396 19.8242 37.7188 18.6133C37.1979 17.4023 36.4818 16.3477 35.5703 15.4492C34.6589 14.5508 33.5977 13.8346 32.3867 13.3008C31.1758 12.7669 29.8802 12.5 28.5 12.5C27.1198 12.5 25.8242 12.7604 24.6133 13.2812C23.4023 13.8021 22.3477 14.5182 21.4492 15.4297C20.5508 16.3411 19.8346 17.4023 19.3008 18.6133C18.7669 19.8242 18.5 21.1198 18.5 22.5ZM53.5 27.5H39.9648C39.3008 28.9714 38.4284 30.2474 37.3477 31.3281C36.2669 32.4089 34.9844 33.2878 33.5 33.9648V47.5H53.5V27.5ZM35.6289 19.6289L27.25 28.0078L22.6211 23.3789L24.3789 21.6211L27.25 24.4922L33.8711 17.8711L35.6289 19.6289Z" fill="white"/>
</g>
<defs>
<clipPath id="clip0_53402_159">
<rect width="40" height="40" fill="white" transform="translate(16 10)"/>
</clipPath>
</defs>
</svg>
