<svg width="73" height="60" viewBox="0 0 73 60" fill="none" xmlns="http://www.w3.org/2000/svg">
<path d="M32.3333 48.5L29.1667 43.1667L23.1667 41.8333L23.75 35.6667L19.6667 31L23.75 26.3333L23.1667 20.1667L29.1667 18.8333L32.3333 13.5L38 15.9167L43.6667 13.5L46.8333 18.8333L52.8333 20.1667L52.25 26.3333L56.3333 31L52.25 35.6667L52.8333 41.8333L46.8333 43.1667L43.6667 48.5L38 46.0833L32.3333 48.5ZM33.75 44.25L38 42.4167L42.3333 44.25L44.6667 40.25L49.25 39.1667L48.8333 34.5L51.9167 31L48.8333 27.4167L49.25 22.75L44.6667 21.75L42.25 17.75L38 19.5833L33.6667 17.75L31.3333 21.75L26.75 22.75L27.1667 27.4167L24.0833 31L27.1667 34.5L26.75 39.25L31.3333 40.25L33.75 44.25ZM36.25 36.9167L45.6667 27.5L43.3333 25.0833L36.25 32.1667L32.6667 28.6667L30.3333 31L36.25 36.9167Z" fill="white"/>
</svg>
