<svg width="60" height="61" viewBox="0 0 60 61" fill="none" xmlns="http://www.w3.org/2000/svg">
<path d="M36.9625 44.8346C34.7875 45.8688 32.4084 46.4028 30 46.3971C21.04 46.3971 13.75 39.1071 13.75 30.1471C13.75 26.3033 15.0713 22.6733 17.5 19.7621V22.6471H20V15.1471H12.5V17.6471H16.0525C12.9532 21.0717 11.241 25.5283 11.25 30.1471C11.25 40.4858 19.6613 48.8971 30 48.8971C32.7803 48.9029 35.5266 48.2861 38.0375 47.0921L36.9625 44.8346Z" fill="white"/>
<path d="M36.25 21.3971C32.3 21.3971 29.0613 24.4683 28.7775 28.3471C27.4033 27.0932 25.6103 26.3977 23.75 26.3971H18.75V31.3971C18.75 35.5333 22.115 38.8971 26.25 38.8971H28.75V43.8971H31.25V33.8971H33.75C37.885 33.8971 41.25 30.5333 41.25 26.3971V21.3971H36.25ZM26.25 36.3971C23.4925 36.3971 21.25 34.1546 21.25 31.3971V28.8971H23.75C26.5075 28.8971 28.75 31.1396 28.75 33.8971V34.6296L25.8837 31.7633L24.1163 33.5308L26.9825 36.3971H26.25ZM38.75 26.3971C38.75 29.1546 36.5075 31.3971 33.75 31.3971H33.0175L35.8838 28.5308L34.1162 26.7633L31.25 29.6296V28.8971C31.25 26.1396 33.4925 23.8971 36.25 23.8971H38.75V26.3971Z" fill="white"/>
<path d="M48.75 30.1471C48.75 19.8084 40.3387 11.3971 30 11.3971C27.2197 11.3913 24.4734 12.0081 21.9625 13.2021L23.0375 15.4596C25.2125 14.4254 27.5916 13.8915 30 13.8971C38.96 13.8971 46.25 21.1871 46.25 30.1471C46.25 33.9909 44.9287 37.6209 42.5 40.5321V37.6471H40V45.1471H47.5V42.6471H43.9475C47.0468 39.2225 48.759 34.766 48.75 30.1471Z" fill="white"/>
</svg>
